<?xml version="1.0" encoding="UTF-8" standalone="no"?>
<svg id="svg2383" xmlns:rdf="http://www.w3.org/1999/02/22-rdf-syntax-ns#" xmlns="http://www.w3.org/2000/svg" viewBox="0 0 1320 880" version="1.0" xmlns:cc="http://creativecommons.org/ns#" xmlns:dc="http://purl.org/dc/elements/1.1/">
<metadata id="metadata55">
<rdf:RDF>
<cc:Work rdf:about="">
<dc:format>image/svg+xml</dc:format>
<dc:type rdf:resource="http://purl.org/dc/dcmitype/StillImage"/>
</cc:Work>
</rdf:RDF>
</metadata>
<path id="rect2389" fill="#fff" d="m0 61.141h1320v722.78h-1320v-722.78z"/>
<rect id="rect2391" height="294" width="1320" y="0" x="0" fill="#239f40"/>
<path id="rect2395" fill="#da0000" d="m0 586v294h1320v-294h-1320z"/>
<path id="use2412" fill="#fff" d="m3 280h6v-14h18v14h30v-21h-18v7h12v7h-18v-14h-30v21zm12 0h6v-7h-6v7zm-12-28h78v-7h-78v7zm78 28h-18v-21h24v-14h6v28h6v-28h6v28h6v-28h6v35h-30v-14h-18v7h12v7z"/>
<path id="use2414" fill="#fff" d="m123 280h6v-14h18v14h30v-21h-18v7h12v7h-18v-14h-30v21zm12 0h6v-7h-6v7zm-12-28h78v-7h-78v7zm78 28h-18v-21h24v-14h6v28h6v-28h6v28h6v-28h6v35h-30v-14h-18v7h12v7z"/>
<path id="use2416" fill="#fff" d="m243 280h6v-14h18v14h30v-21h-18v7h12v7h-18v-14h-30v21zm12 0h6v-7h-6v7zm-12-28h78v-7h-78v7zm78 28h-18v-21h24v-14h6v28h6v-28h6v28h6v-28h6v35h-30v-14h-18v7h12v7z"/>
<path id="use2418" fill="#fff" d="m363 280h6v-14h18v14h30v-21h-18v7h12v7h-18v-14h-30v21zm12 0h6v-7h-6v7zm-12-28h78v-7h-78v7zm78 28h-18v-21h24v-14h6v28h6v-28h6v28h6v-28h6v35h-30v-14h-18v7h12v7z"/>
<path id="use2420" fill="#fff" d="m483 280h6v-14h18v14h30v-21h-18v7h12v7h-18v-14h-30v21zm12 0h6v-7h-6v7zm-12-28h78v-7h-78v7zm78 28h-18v-21h24v-14h6v28h6v-28h6v28h6v-28h6v35h-30v-14h-18v7h12v7z"/>
<path id="use2422" fill="#fff" d="m603 280h6v-14h18v14h30v-21h-18v7h12v7h-18v-14h-30v21zm12 0h6v-7h-6v7zm-12-28h78v-7h-78v7zm78 28h-18v-21h24v-14h6v28h6v-28h6v28h6v-28h6v35h-30v-14h-18v7h12v7z"/>
<path id="use2424" fill="#fff" d="m723 280h6v-14h18v14h30v-21h-18v7h12v7h-18v-14h-30v21zm12 0h6v-7h-6v7zm-12-28h78v-7h-78v7zm78 28h-18v-21h24v-14h6v28h6v-28h6v28h6v-28h6v35h-30v-14h-18v7h12v7z"/>
<path id="use2426" fill="#fff" d="m843 280h6v-14h18v14h30v-21h-18v7h12v7h-18v-14h-30v21zm12 0h6v-7h-6v7zm-12-28h78v-7h-78v7zm78 28h-18v-21h24v-14h6v28h6v-28h6v28h6v-28h6v35h-30v-14h-18v7h12v7z"/>
<path id="use2428" fill="#fff" d="m963 280h6v-14h18v14h30v-21h-18v7h12v7h-18v-14h-30v21zm12 0h6v-7h-6v7zm-12-28h78v-7h-78v7zm78 28h-18v-21h24v-14h6v28h6v-28h6v28h6v-28h6v35h-30v-14h-18v7h12v7z"/>
<path id="use2430" fill="#fff" d="m1083 280h6v-14h18v14h30v-21h-18v7h12v7h-18v-14h-30v21zm12 0h6v-7h-6v7zm-12-28h78v-7h-78v7zm78 28h-18v-21h24v-14h6v28h6v-28h6v28h6v-28h6v35h-30v-14h-18v7h12v7z"/>
<path id="use2432" fill="#fff" d="m1203 280h6v-14h18v14h30v-21h-18v7h12v7h-18v-14h-30v21zm12 0h6v-7h-6v7zm-12-28h78v-7h-78v7zm78 28h-18v-21h24v-14h6v28h6v-28h6v28h6v-28h6v35h-30v-14h-18v7h12v7z"/>
<path id="use2435" fill="#fff" d="m3 301h54v-14h-54v14zm60 0h54v-14h-54v14z"/>
<path id="use2437" fill="#fff" d="m123 301h54v-14h-54v14zm60 0h54v-14h-54v14z"/>
<path id="use2439" fill="#fff" d="m243 301h54v-14h-54v14zm60 0h54v-14h-54v14z"/>
<path id="use2441" fill="#fff" d="m363 301h54v-14h-54v14zm60 0h54v-14h-54v14z"/>
<path id="use2443" fill="#fff" d="m483 301h54v-14h-54v14zm60 0h54v-14h-54v14z"/>
<path id="use2445" fill="#fff" d="m603 301h54v-14h-54v14zm60 0h54v-14h-54v14z"/>
<path id="use2447" fill="#fff" d="m723 301h54v-14h-54v14zm60 0h54v-14h-54v14z"/>
<path id="use2449" fill="#fff" d="m843 301h54v-14h-54v14zm60 0h54v-14h-54v14z"/>
<path id="use2451" fill="#fff" d="m963 301h54v-14h-54v14zm60 0h54v-14h-54v14z"/>
<path id="use2453" fill="#fff" d="m1083 301h54v-14h-54v14zm60 0h54v-14h-54v14z"/>
<path id="use2455" fill="#fff" d="m1203 301h54v-14h-54v14zm60 0h54v-14h-54v14z"/>
<path id="use2579" fill="#fff" d="m3 635h6v-14h18v14h30v-21h-18v7h12v7h-18v-14h-30v21zm12 0h6v-7h-6v7zm-12-28h78v-7h-78v7zm78 28h-18v-21h24v-14h6v28h6v-28h6v28h6v-28h6v35h-30v-14h-18v7h12v7z"/>
<path id="use2581" fill="#fff" d="m123 635h6v-14h18v14h30v-21h-18v7h12v7h-18v-14h-30v21zm12 0h6v-7h-6v7zm-12-28h78v-7h-78v7zm78 28h-18v-21h24v-14h6v28h6v-28h6v28h6v-28h6v35h-30v-14h-18v7h12v7z"/>
<path id="use2583" fill="#fff" d="m243 635h6v-14h18v14h30v-21h-18v7h12v7h-18v-14h-30v21zm12 0h6v-7h-6v7zm-12-28h78v-7h-78v7zm78 28h-18v-21h24v-14h6v28h6v-28h6v28h6v-28h6v35h-30v-14h-18v7h12v7z"/>
<path id="use2585" fill="#fff" d="m363 635h6v-14h18v14h30v-21h-18v7h12v7h-18v-14h-30v21zm12 0h6v-7h-6v7zm-12-28h78v-7h-78v7zm78 28h-18v-21h24v-14h6v28h6v-28h6v28h6v-28h6v35h-30v-14h-18v7h12v7z"/>
<path id="use2587" fill="#fff" d="m483 635h6v-14h18v14h30v-21h-18v7h12v7h-18v-14h-30v21zm12 0h6v-7h-6v7zm-12-28h78v-7h-78v7zm78 28h-18v-21h24v-14h6v28h6v-28h6v28h6v-28h6v35h-30v-14h-18v7h12v7z"/>
<path id="use2589" fill="#fff" d="m603 635h6v-14h18v14h30v-21h-18v7h12v7h-18v-14h-30v21zm12 0h6v-7h-6v7zm-12-28h78v-7h-78v7zm78 28h-18v-21h24v-14h6v28h6v-28h6v28h6v-28h6v35h-30v-14h-18v7h12v7z"/>
<path id="use2591" fill="#fff" d="m723 635h6v-14h18v14h30v-21h-18v7h12v7h-18v-14h-30v21zm12 0h6v-7h-6v7zm-12-28h78v-7h-78v7zm78 28h-18v-21h24v-14h6v28h6v-28h6v28h6v-28h6v35h-30v-14h-18v7h12v7z"/>
<path id="use2593" fill="#fff" d="m843 635h6v-14h18v14h30v-21h-18v7h12v7h-18v-14h-30v21zm12 0h6v-7h-6v7zm-12-28h78v-7h-78v7zm78 28h-18v-21h24v-14h6v28h6v-28h6v28h6v-28h6v35h-30v-14h-18v7h12v7z"/>
<path id="use2595" fill="#fff" d="m963 635h6v-14h18v14h30v-21h-18v7h12v7h-18v-14h-30v21zm12 0h6v-7h-6v7zm-12-28h78v-7h-78v7zm78 28h-18v-21h24v-14h6v28h6v-28h6v28h6v-28h6v35h-30v-14h-18v7h12v7z"/>
<path id="use2597" fill="#fff" d="m1083 635h6v-14h18v14h30v-21h-18v7h12v7h-18v-14h-30v21zm12 0h6v-7h-6v7zm-12-28h78v-7h-78v7zm78 28h-18v-21h24v-14h6v28h6v-28h6v28h6v-28h6v35h-30v-14h-18v7h12v7z"/>
<path id="use2599" fill="#fff" d="m1203 635h6v-14h18v14h30v-21h-18v7h12v7h-18v-14h-30v21zm12 0h6v-7h-6v7zm-12-28h78v-7h-78v7zm78 28h-18v-21h24v-14h6v28h6v-28h6v28h6v-28h6v35h-30v-14h-18v7h12v7z"/>
<path id="use2544" fill="#fff" d="m3 593h54v-14h-54v14zm60 0h54v-14h-54v14z"/>
<path id="use2546" fill="#fff" d="m123 593h54v-14h-54v14zm60 0h54v-14h-54v14z"/>
<path id="use2548" fill="#fff" d="m243 593h54v-14h-54v14zm60 0h54v-14h-54v14z"/>
<path id="use2550" fill="#fff" d="m363 593h54v-14h-54v14zm60 0h54v-14h-54v14z"/>
<path id="use2552" fill="#fff" d="m483 593h54v-14h-54v14zm60 0h54v-14h-54v14z"/>
<path id="use2554" fill="#fff" d="m603 593h54v-14h-54v14zm60 0h54v-14h-54v14z"/>
<path id="use2556" fill="#fff" d="m723 593h54v-14h-54v14zm60 0h54v-14h-54v14z"/>
<path id="use2558" fill="#fff" d="m843 593h54v-14h-54v14zm60 0h54v-14h-54v14z"/>
<path id="use2560" fill="#fff" d="m963 593h54v-14h-54v14zm60 0h54v-14h-54v14z"/>
<path id="use2562" fill="#fff" d="m1083 593h54v-14h-54v14zm60 0h54v-14h-54v14z"/>
<path id="use2564" fill="#fff" d="m1203 593h54v-14h-54v14zm60 0h54v-14h-54v14z"/>
<g id="g2873" fill="#da0000" transform="translate(-110)">
<path id="path2871" d="m743 329c-2 7 1 14 7 18 7 4 15 2 20-3 5 5 13 7 20 3 6-4 9-11 7-18-2 4-7 7-12 8s-11 0-15-3c-4 3-10 4-15 3s-10-4-12-8z"/>
<path id="path2869" d="m770 348l-14 11 2 149c-11-9-21-20-29-33-22-38-19-86 7-121-40 31-51 88-25 132 10 17 24 30 40 38-16 6-32 8-49 6 18 7 38 9 57 5v1l11 13 11-13v-1c19 4 39 2 57-5-17 2-33 0-49-6 16-8 30-21 40-38 26-44 15-101-25-132 26 35 29 83 7 121-8 13-18 24-29 33l2-149-14-11z"/>
<path id="path2867" d="m723 350c-35 10-60 39-64 75-5 36 14 70 45 88-20-24-30-55-26-86s20-59 45-77z"/>
<path id="path2865" d="m817 350c25 18 41 46 45 77s-6 62-26 86c31-18 50-52 45-88-4-36-29-65-64-75z"/>
</g>
</svg>
