<?xml version="1.0" encoding="UTF-8" standalone="no"?>
<svg id="svg2" xmlns:rdf="http://www.w3.org/1999/02/22-rdf-syntax-ns#" xmlns="http://www.w3.org/2000/svg" viewBox="0 0 168 112" width="672" version="1.1" xmlns:cc="http://creativecommons.org/ns#" height="448" xmlns:dc="http://purl.org/dc/elements/1.1/">
<metadata id="metadata23">
<rdf:RDF>
<cc:Work rdf:about="">
<dc:format>image/svg+xml</dc:format>
<dc:type rdf:resource="http://purl.org/dc/dcmitype/StillImage"/>
</cc:Work>
</rdf:RDF>
</metadata>
<rect id="rect11" height="112" width="168" y="0" x="1.1629e-8" fill="#fff"/>
<rect id="rect4325-2-3-2" height="8" width="168" y="80" x="0" fill="#dc241f"/>
<rect id="rect4325-25-7" height="8" width="168" y="64" x="2.2767e-8" fill="#dc241f"/>
<rect id="rect4325-2-3" height="8" width="168" y="48" x="2.2767e-8" fill="#dc241f"/>
<rect id="rect4325-25" height="8" width="168" y="32" x="2.2767e-8" fill="#dc241f"/>
<rect id="rect4325-2" height="8" width="168" y="16" x="2.2767e-8" fill="#dc241f"/>
<rect id="rect4325" height="8" width="168" y="0" x="2.2767e-8" fill="#dc241f"/>
<rect id="rect13" height="64" width="83.627" y="0" x="5.9092e-9" fill="#0035ad"/>
<circle id="circle15" d="M 70,32 C 70,45.254834 59.254834,56 46,56 C 32.745166,56 22,45.254834 22,32 C 22,18.745166 32.745166,8 46,8 C 59.254834,8 70,18.745166 70,32 z" transform="translate(-13.936)" cy="32" cx="46" r="24" fill="#ffd100"/>
<circle id="circle17" d="M 72,32 C 72,43.59798 62.59798,53 51,53 C 39.40202,53 30,43.59798 30,32 C 30,20.40202 39.40202,11 51,11 C 62.59798,11 72,20.40202 72,32 z" transform="translate(-13.936)" cy="32" cx="51" r="21" fill="#0035ad"/>
<path id="polygon19" fill="#ffd100" d="m51.076 38.255l-10.649 6.215 8.429-8.999-12.291 0.979 11.499-4.45-11.499-4.45 12.291 0.979-8.429-8.999 10.649 6.215-3.69-11.764 6.898 10.22 1.78-12.201 1.78 12.201 6.898-10.22-3.69 11.764 10.649-6.215-8.429 8.999 12.291-0.979-11.499 4.45 11.499 4.45-12.291-0.979 8.429 8.999-10.649-6.215 3.69 11.764-6.898-10.22-1.78 12.201-1.78-12.201-6.898 10.22z"/>
<rect id="rect4325-2-3-2-9" height="8" width="168" y="96" x="2.2767e-8" fill="#dc241f"/>
</svg>
