<?xml version="1.0" encoding="UTF-8" standalone="no"?>
<!-- Created with Inkscape (http://www.inkscape.org/) -->

<svg
   xmlns:dc="http://purl.org/dc/elements/1.1/"
   xmlns:cc="http://creativecommons.org/ns#"
   xmlns:rdf="http://www.w3.org/1999/02/22-rdf-syntax-ns#"
   xmlns:svg="http://www.w3.org/2000/svg"
   xmlns="http://www.w3.org/2000/svg"
   xmlns:sodipodi="http://sodipodi.sourceforge.net/DTD/sodipodi-0.dtd"
   xmlns:inkscape="http://www.inkscape.org/namespaces/inkscape"
   width="460.07401"
   height="216.495"
   id="svg3133"
   version="1.1"
   inkscape:version="0.48.3.1 r9886"
   sodipodi:docname="ianseo.svg"
   inkscape:export-filename="/home/deligant/siti/ianseo/ianseo.jpg.png"
   inkscape:export-xdpi="125.12991"
   inkscape:export-ydpi="125.12991">
  <defs
     id="defs3135" />
  <sodipodi:namedview
     id="base"
     pagecolor="#ffffff"
     bordercolor="#666666"
     borderopacity="1.0"
     inkscape:pageopacity="0.0"
     inkscape:pageshadow="2"
     inkscape:zoom="2.4632221"
     inkscape:cx="228.28509"
     inkscape:cy="110.2475"
     inkscape:document-units="px"
     inkscape:current-layer="layer1"
     showgrid="false"
     showguides="true"
     inkscape:guide-bbox="true"
     fit-margin-top="10"
     fit-margin-right="10"
     fit-margin-bottom="10"
     fit-margin-left="10" />
  <metadata
     id="metadata3138">
    <rdf:RDF>
      <cc:Work
         rdf:about="">
        <dc:format>image/svg+xml</dc:format>
        <dc:type
           rdf:resource="http://purl.org/dc/dcmitype/StillImage" />
        <dc:title></dc:title>
      </cc:Work>
    </rdf:RDF>
  </metadata>
  <g
     inkscape:label="Layer 1"
     inkscape:groupmode="layer"
     id="layer1"
     transform="translate(-140.556,-425.11469)">
    <path
       style="fill:#02669b"
       d="M 178.242,502.0543 C 178.242,504.4133 177.212,506.3043 175.153,507.7283 C 173.356,509.0013 171.221,509.6373 168.75,509.6373 C 166.241,509.6373 164.106,509.0013 162.347,507.7283 C 160.362,506.2673 159.37,504.3203 159.37,501.8863 C 159.37,499.4523 160.362,497.5243 162.347,496.1013 C 164.106,494.7903 166.241,494.1343 168.75,494.1343 C 171.222,494.1343 173.375,494.8273 175.209,496.2123 C 177.231,497.7113 178.242,499.6593 178.242,502.0543 z"
       id="path3205"
       inkscape:connector-curvature="0" />
    <path
       style="fill:#02669b"
       d="M 175.939,561.45571 L 160.773,561.45571 L 160.773,511.62471 L 175.939,511.62471 z"
       id="path61"
       inkscape:connector-curvature="0"
       sodipodi:nodetypes="ccccc" />
    <path
       style="fill:#02669b"
       d="M 299.46875,504.21875 C 294.01924,504.21875 289.34402,504.68438 285.4375,505.59375 L 285.4375,504.625 L 270.28125,504.625 L 270.28125,560.46875 L 270.59375,560.46875 L 270.59375,561.78125 L 285.8125,561.78125 L 285.8125,522.25 C 285.8125,520.565 287.49825,519.323 290.90625,518.5 C 293.22725,517.902 295.716,517.59375 298.375,517.59375 L 318.84375,517.59375 C 321.61475,517.59375 324.19,517.8755 326.625,518.4375 C 330.256,519.2625 332.09375,520.5025 332.09375,522.1875 L 332.09375,561.78125 L 347.40625,561.78125 L 347.4375,561.78125 L 347.4375,521.125 C 347.4375,509.855 337.90375,504.21875 318.84375,504.21875 L 299.46875,504.21875 z"
       id="path63"
       inkscape:connector-curvature="0" />
    <path
       style="fill:#02669b"
       inkscape:connector-curvature="0"
       d="M 424.99,544.38071 C 424.99,555.76471 416.601,561.45571 399.826,561.45571 H 353.543 V 548.14371 H 399.882 C 406.173,548.14371 409.318,546.88871 409.318,544.37971 V 542.35871 C 409.318,540.22371 406.51,539.15671 400.893,539.15671 H 381.627 C 362.792,539.15671 353.375,533.65171 353.375,522.64271 V 519.72171 C 353.375,513.24371 356.501,508.82571 362.755,506.46571 C 366.687,504.96871 372.547,504.21971 380.336,504.21971 H 412.718 L 412.666,517.58671 H 380.842 C 372.678,517.58671 368.597,518.42971 368.597,520.11371 V 522.52971 C 368.597,524.13971 370.469,525.13371 374.214,525.50671 C 375.225,525.61971 377.715,525.67571 381.684,525.67571 H 401.343 C 417.107,525.67571 424.99,531.08671 424.99,541.90771 V 544.38071 z"
       id="path65" />
    <path
       style="fill:#02669b"
       inkscape:connector-curvature="0"
       d="M 507.782,540.33571 H 445.659 C 445.659,545.61571 453.092,548.25571 467.957,548.25571 C 468.931,548.25571 470.11,548.23771 471.496,548.19971 C 472.881,548.16271 487.289,548.14371 487.664,548.14371 V 561.51071 H 463.071 C 450.451,561.51071 441.82,559.71371 437.177,556.11871 C 432.346,552.41071 429.931,547.95571 429.931,542.75071 V 522.92371 C 429.931,516.14771 433.47,511.12871 440.547,507.87071 C 445.863,505.39971 452.361,504.16371 460.037,504.16371 H 482.167 C 488.607,504.16371 494.167,505.34371 498.849,507.70271 C 504.804,510.66071 507.781,515.02271 507.781,520.78971 V 540.33571 z M 492.841,526.68671 V 522.30571 C 492.841,519.01071 488.685,517.36271 480.372,517.36271 H 458.241 C 449.516,517.36271 445.154,518.97371 445.154,522.19371 V 526.68671 H 492.841 z"
       id="path67" />
    <path
       style="fill:#02669b"
       inkscape:connector-curvature="0"
       d="M 590.63,543.03271 C 590.63,549.69771 587.446,554.62271 581.081,557.80371 C 576.214,560.23971 570.071,561.45471 562.657,561.45471 H 542.943 C 535.529,561.45471 529.218,560.21971 524.015,557.74771 C 517.199,554.52771 513.792,549.62171 513.792,543.03171 V 523.20371 C 513.792,516.68771 517.181,511.70871 523.958,508.26371 C 529.312,505.56771 535.622,504.21971 542.886,504.21971 H 562.657 C 581.305,504.21971 590.63,510.51071 590.63,523.09171 V 543.03271 z M 575.239,542.46971 V 522.86671 C 575.239,520.92071 573.536,519.49671 570.128,518.59771 C 567.769,517.92371 565.167,517.58571 562.321,517.58571 H 543.055 C 540.321,517.58571 537.549,518.03471 534.741,518.93471 C 530.923,520.09571 529.012,521.70571 529.012,523.76571 V 542.46871 C 529.012,544.45371 530.979,545.97071 534.91,547.01871 C 537.719,547.76771 540.451,548.14271 543.109,548.14271 H 562.377 C 564.697,548.14271 567.225,547.71171 569.959,546.84971 C 573.48,545.72771 575.239,544.26771 575.239,542.46971 z"
       id="path69" />
    <g
       transform="translate(-101.577,-308.63629)"
       id="g71">
      <path
         style="fill:#02669b"
         inkscape:connector-curvature="0"
         d="M 366.354,835.435 C 366.354,843.476 363.415,850.546 357.54,856.648 C 351.663,862.751 345.286,865.8 338.406,865.8 C 336.971,865.8 335.718,865.399 334.644,864.596 C 333.354,863.575 332.422,861.971 331.849,859.781 C 330.702,861.22 328.964,862.584 326.636,863.871 C 324.306,865.158 321.923,865.801 319.488,865.801 C 314.471,865.801 310.244,864.182 306.804,860.941 C 303.077,857.485 301.215,852.876 301.215,847.114 C 301.215,840.78 303.507,835.018 308.094,829.832 C 313.039,824.288 318.986,821.515 325.938,821.515 C 328.948,821.515 331.778,822.133 334.43,823.369 C 337.08,824.605 338.945,826.46 340.019,828.931 L 341.309,823.557 H 350.231 L 342.384,853.969 C 342.169,854.76 342.384,855.424 343.029,855.964 C 343.674,856.503 344.282,856.772 344.857,856.772 C 347.722,856.772 350.589,854.546 353.456,850.092 C 356.322,845.638 357.756,840.574 357.756,834.899 C 357.756,828.579 354.781,823.083 348.834,818.415 C 342.885,813.745 335.612,811.411 327.013,811.411 C 317.768,811.411 309.814,814.427 303.149,820.456 C 296.484,826.486 293.152,833.917 293.152,842.745 C 293.152,851.504 296.592,858.897 303.471,864.927 C 310.063,870.741 317.803,873.65 326.689,873.65 C 332.349,873.65 337.563,872.826 342.329,871.177 C 347.094,869.529 350.516,867.559 352.595,865.265 H 362.162 C 359.797,869.494 355.497,873.291 349.263,876.66 C 342.383,880.387 335.252,882.249 327.872,882.249 C 315.043,882.249 304.455,878.32 296.108,870.464 C 287.759,862.607 283.585,853.188 283.585,842.208 C 283.585,831.73 287.813,822.547 296.269,814.653 C 304.724,806.759 314.936,802.812 326.904,802.812 C 338.154,802.812 347.543,806.006 355.067,812.396 C 362.592,818.782 366.354,826.462 366.354,835.435 z M 336.041,840.712 C 336.041,838.071 335.163,835.843 333.407,834.024 C 331.65,832.205 329.339,831.295 326.474,831.295 C 322.46,831.295 319.057,832.884 316.262,836.058 C 313.467,839.233 312.07,842.782 312.07,846.705 C 312.07,849.631 312.912,851.806 314.596,853.233 C 316.279,854.661 318.447,855.373 321.099,855.373 C 325.614,855.373 329.339,853.626 332.278,850.13 C 334.786,847.206 336.041,844.066 336.041,840.712 z"
         id="path73" />
    </g>
    <rect
       style="fill:#009ee0"
       x="290.7525"
       y="478.35272"
       width="36.5"
       height="8.5"
       id="rect77" />
    <rect
       style="fill:#009ee0"
       x="290.7525"
       y="623.10968"
       width="36.5"
       height="8.5"
       id="rect79" />
    <rect
       style="fill:#009ee0"
       x="290.7525"
       y="581.36469"
       width="36.5"
       height="8.5"
       id="rect81" />
    <rect
       style="fill:#009ee0"
       x="290.7525"
       y="595.36371"
       width="36.5"
       height="8.5"
       id="rect83" />
    <rect
       style="fill:#009ee0"
       x="290.7525"
       y="609.36371"
       width="36.5"
       height="8.5"
       id="rect85" />
    <rect
       style="fill:#009ee0"
       x="150.556"
       y="449.36469"
       width="36.5"
       height="8.5"
       id="rect87" />
    <rect
       style="fill:#009ee0"
       x="150.556"
       y="464.36469"
       width="36.5"
       height="8.5"
       id="rect89" />
    <rect
       style="fill:#009ee0"
       x="150.556"
       y="478.36469"
       width="36.5"
       height="8.5"
       id="rect91" />
    <rect
       style="fill:#009ee0"
       x="370.9325"
       y="435.11469"
       width="36.5"
       height="8.5"
       id="rect93" />
    <rect
       style="fill:#009ee0"
       x="370.9325"
       y="450.11469"
       width="36.5"
       height="8.5"
       id="rect95" />
    <rect
       style="fill:#009ee0"
       x="370.9325"
       y="464.11469"
       width="36.5"
       height="8.5"
       id="rect97" />
    <rect
       style="fill:#009ee0"
       x="370.9325"
       y="478.36469"
       width="36.5"
       height="8.5"
       id="rect99" />
    <g
       transform="translate(-106.406,-304.63629)"
       id="g101">
      <rect
         style="fill:#009ee0"
         x="640.242"
         y="740.25098"
         width="36.5"
         height="8.5"
         id="rect103" />
      <rect
         style="fill:#009ee0"
         x="640.242"
         y="755.25098"
         width="36.5"
         height="8.5"
         id="rect105" />
      <rect
         style="fill:#009ee0"
         x="640.242"
         y="769.25098"
         width="36.5"
         height="8.5"
         id="rect107" />
      <rect
         style="fill:#009ee0"
         x="640.492"
         y="783.50098"
         width="36.5"
         height="8.5"
         id="rect109" />
    </g>
    <rect
       style="fill:#009ee0"
       x="450.60651"
       y="478.61469"
       width="36.5"
       height="8.5"
       id="rect111" />
    <rect
       style="fill:#009ee0"
       x="450.60651"
       y="577.61469"
       width="36.5"
       height="8.5"
       id="rect113" />
  </g>
</svg>
