<?xml version="1.0" ?><!DOCTYPE svg  PUBLIC '-//W3C//DTD SVG 1.1//EN'  'http://www.w3.org/Graphics/SVG/1.1/DTD/svg11.dtd'><svg enable-background="new 0 0 700 700" height="700px" id="Layer_1" version="1.1" viewBox="0 0 700 700" width="700px" xml:space="preserve" xmlns="http://www.w3.org/2000/svg" xmlns:xlink="http://www.w3.org/1999/xlink"><circle cx="350" cy="350" fill="#CC334A" r="350"/><path d="M459.099,171.604L350,280.703L240.902,171.606l0,0l0,0l0,0l0,0c-19.135-19.135-50.161-19.136-69.296,0  c-19.136,19.136-19.137,50.163-0.001,69.298L280.703,350L171.604,459.098c-19.136,19.137-19.136,50.161,0,69.299  c19.136,19.136,50.161,19.135,69.297-0.002v0.002L350,419.297l109.07,109.07c0.01,0.01,0.018,0.02,0.025,0.029  c19.137,19.136,50.162,19.134,69.298-0.003c19.137-19.136,19.137-50.159,0-69.296L419.297,350l109.07-109.071  c0.01-0.01,0.02-0.017,0.029-0.027c19.136-19.136,19.136-50.16,0-69.296C509.26,152.469,478.235,152.469,459.099,171.604z" fill="#FFFFFF"/></svg>