<?xml version="1.0" ?><!DOCTYPE svg  PUBLIC '-//W3C//DTD SVG 1.1//EN'  'http://www.w3.org/Graphics/SVG/1.1/DTD/svg11.dtd'><svg enable-background="new 0 0 700 700" height="700px" id="Layer_1" version="1.1" viewBox="0 0 700 700" width="700px" xml:space="preserve" xmlns="http://www.w3.org/2000/svg" xmlns:xlink="http://www.w3.org/1999/xlink"><circle cx="350" cy="350" fill="#4A97CC" r="350"/><path d="M250,365.107" fill="#FFFFFF"/><circle cx="338.622" cy="165.341" fill="#FFFFFF" r="61.378"/><path d="M266.373,365.132c-25.611,0-46.373-20.762-46.373-46.373c0-25.611,20.762-46.373,46.373-46.373L343,272.361  h21.5h5.5c16.568,0,30,13.431,30,30V314.5v13v252.99c0,0.003,0,0.007,0,0.01c0,10.493-8.507,19-19,19h-62c-10.493,0-19-8.507-19-19  c0-0.003,0-0.007,0-0.01l0,0V365.132H266.373z" fill="#FFFFFF"/></svg>