<?xml version="1.0" encoding="UTF-8" standalone="no"?>
<svg id="svg2" xmlns:rdf="http://www.w3.org/1999/02/22-rdf-syntax-ns#" xmlns="http://www.w3.org/2000/svg" xml:space="preserve" viewBox="0 0 1501.9494 1001.9506" height="600" width="900" version="1.1" y="0px" x="0px" xmlns:cc="http://creativecommons.org/ns#" enable-background="new 0 0 1501.953 1001.953" xmlns:dc="http://purl.org/dc/elements/1.1/"><metadata id="metadata150"><rdf:RDF><cc:Work rdf:about=""><dc:format>image/svg+xml</dc:format><dc:type rdf:resource="http://purl.org/dc/dcmitype/StillImage"/><dc:title/></cc:Work></rdf:RDF></metadata><g id="red" transform="matrix(1.0006 0 0 1.2499 -.48827 -.24436)"><rect id="rect11" fill-rule="evenodd" height="333.33" width="1500" stroke="#ce1126" clip-rule="evenodd" y=".977" x=".977" stroke-width="1.747" fill="#ce1126"/></g><g id="white" transform="matrix(1.0006 0 0 1.1547 -.48827 -51.718)"><rect id="rect8" fill-rule="evenodd" height="333.33" width="1500" stroke="#fff" clip-rule="evenodd" y="334.31" x=".977" stroke-width="1.8176" fill="#fff"/></g><g id="eagle" transform="translate(9.5127 -1.4831)"><g id="g1838" transform="matrix(1.0002 0 0 1 .021783 0)"><path id="_x32_1445608" stroke-linejoin="round" d="m741.33 659.04c32.76 0 64.11-2.59 82.49-7.78 7.78-1.41 7.78-5.41 7.78-10.6 7.78-2.59 3.77-11.78 9.19-11.78-5.42 1.41-6.6-9.19-13.2-7.78 0-9.19-9.19-10.37-16.97-7.78-15.56 5.19-43.13 6.37-69.29 6.37-26.16-1.18-53.5-1.18-69.29-6.37-7.78-2.59-16.96-1.41-16.96 7.78-6.61-1.41-7.78 9.19-13.2 7.78 5.42 0 1.41 9.19 9.19 11.78 0 5.19 0 9.19 8.01 10.6 18.14 5.19 49.49 7.78 82.25 7.78z" stroke="#c09300" stroke-linecap="round" stroke-width="3.9062" fill="#fff"/></g><path id="_x32_1445696" stroke-linejoin="round" d="m666.98 626.28c-2.6 0-2.6 1.42 0 1.42 1.18 0 1.18-1.42 0-1.42z" stroke="#c09300" stroke-linecap="round" stroke-width="2.0872" fill="#fdd220"/><path id="_x32_1445784" stroke-linejoin="round" d="m666.98 621.1c-1.42 0-1.42 2.59 0 2.59 2.6 0 2.6-2.59 0-2.59z" stroke="#c09300" stroke-linecap="round" stroke-width="2.0872" fill="#fdd220"/><path id="_x32_1445872" stroke-linejoin="round" d="m666.98 640.66c-1.42 0-1.42 2.59 0 2.59 1.18 0 1.18-2.59 0-2.59z" stroke="#c09300" stroke-linecap="round" stroke-width="2.0872" fill="#fdd220"/><path id="_x32_1445960" stroke-linejoin="round" d="m672.16 642.07c-2.58 0-2.58 2.59 0 2.59 1.42 0 1.42-2.59 0-2.59z" stroke="#c09300" stroke-linecap="round" stroke-width="2.0872" fill="#fdd220"/><path id="_x32_1446048" stroke-linejoin="round" d="m677.35 643.25c-1.18 0-1.18 2.6 0 2.6 2.59 0 2.59-2.6 0-2.6z" stroke="#c09300" stroke-linecap="round" stroke-width="2.0872" fill="#fdd220"/><path id="_x32_1446136" stroke-linejoin="round" d="m758.44 630.29c-1.18 0-1.18 2.59 0 2.59 1.41 0 1.41-2.59 0-2.59z" stroke="#c09300" stroke-linecap="round" stroke-width="2.0872" fill="#fdd220"/><path id="_x32_1446224" stroke-linejoin="round" d="m759.85 635.48c-2.59 0-2.59 1.18 0 1.18 1.18 0 1.18-1.18 0-1.18z" stroke="#c09300" stroke-linecap="round" stroke-width="2.0872" fill="#fdd220"/><path id="_x32_1446312" stroke-linejoin="round" d="m763.62 648.44c-1.18 0-1.18 2.82 0 2.82 1.42 0 1.42-2.82 0-2.82z" stroke="#c09300" stroke-linecap="round" stroke-width="2.0872" fill="#fdd220"/><path id="_x32_1446400" stroke-linejoin="round" d="m769.04 648.44c-2.83 0-2.83 2.82 0 2.82 1.18 0 1.18-2.82 0-2.82z" stroke="#c09300" stroke-linecap="round" stroke-width="2.0872" fill="#fdd220"/><path id="_x32_1446488" stroke-linejoin="round" d="m822.55 638.06c-2.59 0-2.59 1.42 0 1.42 1.41 0 1.41-1.42 0-1.42z" stroke="#c09300" stroke-linecap="round" stroke-width="2.0872" fill="#fdd220"/><g id="g1853" transform="matrix(1.0002 0 0 1 .021783 0)"><path id="_x32_1446576" stroke-linejoin="round" d="m672.04 621.1c-1.41 5.18-2.59 10.37-4.01 12.96 0 2.6 1.42 4.01 2.6 4.01 4.01 1.41 4.01 1.41 5.42-4.01 1.17-2.59 0-2.59 0 0-1.41 4.01-2.59 5.42 2.59 6.6 3.77 1.41 5.18 0 6.36-5.18 0-2.6-2.59-1.42-1.18 0" stroke="#c09300" stroke-linecap="round" stroke-width="2.0872" fill="none"/></g><g id="g1856" transform="matrix(1.0002 0 0 1 .021783 0)"><path id="_x32_1311504" stroke-linejoin="round" d="m669.45 631.47c-6.6 1.41-4.01 5.19 1.18 6.6" stroke="#c09300" stroke-linecap="round" stroke-width="2.0872" fill="none"/></g><g id="g1859" transform="matrix(1.0002 0 0 1 .021783 0)"><path id="_x32_1311592" stroke-linejoin="round" d="m686.42 645.85c2.59-1.19 4-3.78 4-6.37-1.41-4-2.59-2.82-1.41 0 0 2.59 1.41 3.77 5.19 3.77 2.59 0 5.18-1.18 8.01-2.59 2.59-1.18 2.59-5.18 0-6.6-4.01-1.18-6.6 4.01-2.83 6.6 1.41 1.41 2.83 2.59 5.42 4.01 0 1.18 0 3.77 2.59 3.77 1.18 1.41 3.78-2.59 3.78-6.37v-11.78" stroke="#c09300" stroke-linecap="round" stroke-width="2.0872" fill="none"/></g><g id="g1862" transform="matrix(1.0002 0 0 1 .021783 0)"><path id="_x32_1311680" stroke-linejoin="round" d="m716.59 630.29c0 3.77-1.42 10.37-1.42 14.37" stroke="#c09300" stroke-linecap="round" stroke-width="2.0872" fill="none"/></g><g id="g1865" transform="matrix(1.0002 0 0 1 .021783 0)"><path id="_x32_1311768" stroke-linejoin="round" d="m719.18 652.44c5.18-4 5.18-6.6 5.18-9.19-1.41-3.77-4-2.59-2.59 0 1.18 1.41 2.59 2.6 5.18 2.6 1.42 0 2.6-1.19 2.6-6.37 0-1.41-1.18-1.41-1.18 0 0 1.18 3.77 1.18 5.18 1.18 2.59 1.41 9.19 1.41 10.37 0 1.41 0 1.41 4.01 1.41 4.01 0 1.18-1.41 2.59-1.41 3.77-1.18 2.82-2.59 1.41-4 0 0-2.59-2.6-2.59-3.78-2.59h-9.19" stroke="#c09300" stroke-linecap="round" stroke-width="2.0872" fill="none"/></g><g id="g1868" transform="matrix(1.0002 0 0 1 .021783 0)"><path id="_x32_1311856" stroke-linejoin="round" d="m745.34 645.85c1.18 0 3.77-1.19 5.18 0 1.18 0 4.01-1.19 4.01-2.6 0-3.77-6.6-3.77-4.01 2.6" stroke="#c09300" stroke-linecap="round" stroke-width="2.0872" fill="none"/></g><g id="g1871" transform="matrix(1.0002 0 0 1 .021783 0)"><path id="_x32_1311944" stroke-linejoin="round" d="m763.49 630.29c1.41 5.19 1.41 11.78 0 14.37-1.18 1.19-3.78 1.19-3.78 0 1.18-1.41 3.78-2.59 5.19-1.41 0 1.41 1.18 2.6 4 1.41 2.6 0 3.78 0 3.78-6.6 0-1.4-3.78-1.4 0 1.42" stroke="#c09300" stroke-linecap="round" stroke-width="2.0872" fill="none"/></g><g id="g1874" transform="matrix(1.0002 0 0 1 .021783 0)"><path id="_x32_1312032" stroke-linejoin="round" d="m776.68 649.85c2.6-2.59 5.19-7.78 3.77-10.37-2.59-2.82-3.77-2.82-3.77 0 0 1.18 1.18 2.59 3.77 3.77" stroke="#c09300" stroke-linecap="round" stroke-width="2.0872" fill="none"/></g><g id="g1877" transform="matrix(1.0002 0 0 1 .021783 0)"><path id="_x32_1312120" stroke-linejoin="round" d="m785.87 647.26c3.77-1.41 3.77-4.01 3.77-6.6 0-2.6-1.18-4-2.59-2.6-2.59 1.42-2.59 4.01 0 4.01 5.19 0 14.38-1.41 20.98-5.41" stroke="#c09300" stroke-linecap="round" stroke-width="2.0872" fill="none"/></g><g id="g1880" transform="matrix(1.0002 0 0 1 .021783 0)"><path id="_x32_1312208" stroke-linejoin="round" d="m795.06 640.66c0-2.6 1.18-5.18 3.78-5.18 1.41-1.42 5.18 0 5.18 2.58 1.42 2.6-1.18 5.19-3.77 4.01-1.41-2.59-2.59-9.19-4.01-14.37" stroke="#c09300" stroke-linecap="round" stroke-width="2.0872" fill="none"/></g><g id="g1883" transform="matrix(1.0002 0 0 1 .021783 0)"><path id="_x32_1312296" stroke-linejoin="round" d="m815.8 634.06c-2.59-2.59-9.19 0-7.77 2.6 1.41 4 9.19 1.4 7.77-2.6z" stroke="#c09300" stroke-linecap="round" stroke-width="2.0872" fill="none"/></g><g id="g1886" transform="matrix(1.0002 0 0 1 .021783 0)"><path id="_x32_1312384" stroke-linejoin="round" d="m815.8 635.48s2.6-1.42 4.01-2.6" stroke="#c09300" stroke-linecap="round" stroke-width="2.0872" fill="none"/></g><g id="g1889" transform="matrix(1.0002 0 0 1 .021783 0)"><path id="_x32_1312472" stroke-linejoin="round" d="m809.44 621.1c2.59-2.59 7.78-2.59 7.78 2.59 0 9.19 3.77 12.97 9.19 9.19 0-1.41 0-2.59-1.41 0" stroke="#c09300" stroke-linecap="round" stroke-width="2.0872" fill="none"/></g><g id="g1892" transform="matrix(1.0002 0 0 1 .021783 0)"><path id="_x32_1312560" stroke-linejoin="round" d="m695.61 636.66h2.59" stroke="#c09300" stroke-linecap="round" stroke-width="2.0872" fill="none"/></g><g id="g1895" transform="matrix(1.0002 0 0 1 .021783 0)"><path id="_x32_1312648" stroke-linejoin="round" d="m704.8 638.06h1.18" stroke="#c09300" stroke-linecap="round" stroke-width="2.0872" fill="none"/></g><path id="_x32_1312736" stroke-linejoin="round" d="m742.78 508.86l112.53 104.46-8.01-189.72c-1.18-28.75-26.16-22.15-44.31-11.78-18.39 11.78-39.37 11.78-61.53 4-22.15 7.78-43.13 7.78-61.52-4-18.15-10.37-43.13-16.97-44.31 11.78l-8.02 189.72 115.17-104.46z" stroke="#c09300" stroke-linecap="round" stroke-width="2.0872" fill="#fff"/><g id="g1902" transform="matrix(1.0002 0 0 1 .021783 0)"><path id="_x32_1312912" d="m759.71 422.42c6.37 3.78 12.97 3.78 16.97 3.78-13.19-9.2-16.97-33.94-15.79-44.32 2.6-20.97-2.59-32.75-15.55-35.35-2.6 0-4.01-1.41-9.2-1.41-4-1.18-6.99 2.59-8.41 5.18-4-2.59-7.37-1.17-11.14-3.77-4.01-1.41-10.61 0-10.61 9.19l2.56-1.07c1.18 0.18 3.35 1.45 5.98 2.9 3.41 2.69 8.43 4.54 9.84 13.73 2.59 19.56 0 37.94-18.38 54.92 4.01 0 10.61 0 16.97-3.78-2.59 3.78-3.77 5.19-6.36 7.78 7.77-1.42 14.37-4 18.14-10.37 1.42 2.59 5.19 6.36 6.6 8.95 1.42-2.59 5.19-6.36 6.6-8.95 3.77 6.36 10.37 8.95 18.15 10.37-2.59-2.59-3.77-4-6.37-7.78z" stroke="#c09300" stroke-linecap="square" stroke-width="1.9531" fill="#fff"/></g><g id="g1907" transform="matrix(1.0002 0 0 1 .021783 0)"><path id="_x32_1313000" stroke-linejoin="round" d="m753.11 397.44c0 10.61 3.42 18.38 7.42 26.16" stroke="#c09300" stroke-linecap="round" stroke-width="2.0872" fill="none"/></g><g id="g1910" transform="matrix(1.0002 0 0 1 .021783 0)"><path id="_x32_1313088" stroke-linejoin="round" d="m747.93 419.83c-2.59-4.01-4.01-11.78-4.01-22.39" stroke="#c09300" stroke-linecap="round" stroke-width="2.0872" fill="none"/></g><g id="g1913" transform="matrix(1.0002 0 0 1 .021783 0)"><path id="_x32_1313176" stroke-linejoin="round" d="m729.55 397.44c0 10.61-3.42 18.38-7.42 26.16" stroke="#c09300" stroke-linecap="round" stroke-width="2.0872" fill="none"/></g><g id="g1916" transform="matrix(1.0002 0 0 1 .021783 0)"><path id="_x32_1313264" stroke-linejoin="round" d="m734.73 419.83c2.59-4.01 4-11.78 4-22.39" stroke="#c09300" stroke-linecap="round" stroke-width="2.0872" fill="none"/></g><path id="_x32_1313352" stroke-linejoin="round" d="m706.96 354.49c2.76 0.18 3.98 1.14 7.69 3.06 2.59 1.42 8.43 4.54 9.84 12.55-1.41-4 1.18-8.01 4.01-6.6-4.01-9.19-16.36-11.6-21.54-9.01z" stroke="#c09300" stroke-linecap="round" stroke-width=".97660" fill="#c09300"/><g id="g1920" transform="matrix(1.0002 0 0 1 .021783 0)"><path id="_x32_1313440" d="m746.52 529.65l15.79 71.89-5.19 5.18-5.42-4-8.96-64.11 3.77 64.11-5.18 6.6-5.19-6.6 3.78-64.11-8.96 64.11-5.42 4-5.19-5.18 15.79-71.89h10.38z" stroke="#c09300" stroke-linecap="square" stroke-width="1.7643" fill="#c09300"/></g><g id="g1925" transform="matrix(1.0002 0 0 1 .021783 0)"><path id="_x32_1313528" fill="#c09300" d="m648.47 417l-7.77 184.54-13.2 11.78 8.01-189.72c3.77-2.59 10.37-6.6 12.96-6.6z"/></g><g id="g1930" transform="matrix(1.0002 0 0 1 .021783 0)"><path id="_x32_1313616" fill="#c09300" d="m664.26 430.2l-6.6 154.37-13.19 13.5 8.01-178.24c2.59 2.59 10.37 8.95 11.78 10.37z"/></g><g id="g1935" transform="matrix(1.0002 0 0 1 .021783 0)"><path id="_x32_1313704" fill="#c09300" d="m678.64 441.98l-5.18 128.75-10.61 10.37 6.6-146.89c2.59 2.59 7.77 6.36 9.19 7.77z"/></g><g id="g1940" transform="matrix(1.0002 0 0 1 .021783 0)"><path id="_x32_1313792" fill="#c09300" d="m694.19 448.58l-5.18 109.73-10.37 8.41 5.18-122.14c2.6 1.17 7.78 4 10.37 4z"/></g><g id="g1945" transform="matrix(1.0002 0 0 1 .021783 0)"><path id="_x32_1313880" fill="#c09300" d="m708.57 448.58l-3.77 91.45-10.6 10.37 4-100.64c2.59 0 9.19 0 10.37-1.18z"/></g><g id="g1950" transform="matrix(1.0002 0 0 1 .021783 0)"><path id="_x32_1313968" fill="#c09300" d="m834.19 417l7.77 184.54 13.2 11.78-8.01-189.72c-3.77-2.59-10.37-6.6-12.96-6.6z"/></g><g id="g1955" transform="matrix(1.0002 0 0 1 .021783 0)"><path id="_x32_1314056" fill="#c09300" d="m818.4 430.2l6.6 154.37 13.19 11.55-8.01-176.29c-2.59 2.59-10.37 8.95-11.78 10.37z"/></g><path id="_x32_1314144" fill="#c09300" d="m804.16 441.98l5.42 128.75 10.38 8.41-6.6-144.93c-2.6 2.59-7.78 6.36-9.2 7.77z"/><g id="g1961" transform="matrix(1.0002 0 0 1 .021783 0)"><path id="_x32_1314232" fill="#c09300" d="m788.46 448.58l5.19 107.78 10.37 8.41-5.18-120.19c-2.6 1.17-7.78 4-10.38 4z"/></g><g id="g1966" transform="matrix(1.0002 0 0 1 .021783 0)"><path id="_x32_1314320" fill="#c09300" d="m774.09 448.58l3.77 91.45 10.6 10.37-4-100.64c-2.59 0-9.19 0-10.37-1.18z"/></g><g id="g1971" transform="matrix(1.0002 0 0 1 .021783 0)"><path id="_x32_1314408" stroke-linejoin="round" d="m705.98 498.08l-31.34 111.24 43.12 6.6 18.38-83.67-30.16-34.17z" stroke="#c09300" stroke-linecap="round" stroke-width="1.9531" fill="#fff"/></g><g id="g1976" transform="matrix(1.0002 0 0 1 .021783 0)"><path id="_x32_1314496" stroke-linejoin="round" d="m776.68 498.08l31.34 111.24-43.12 6.6-18.38-83.67 30.16-34.17z" stroke="#c09300" stroke-linecap="round" stroke-width="1.9531" fill="#fff"/></g><g id="g1981" transform="matrix(1.0002 0 0 1 .021783 0)"><path id="_x32_1314584" stroke-linejoin="round" d="m695.61 536.02l3.77 9.19 11.78-12.96" stroke="#c09300" stroke-linecap="round" stroke-width="2.0872" fill="none"/></g><g id="g1984" transform="matrix(1.0002 0 0 1 .021783 0)"><path id="_x32_1314672" stroke-linejoin="round" d="m709.98 516.46l4.01 36.53 12.96-16.97" stroke="#c09300" stroke-linecap="round" stroke-width="2.0872" fill="none"/></g><g id="g1987" transform="matrix(1.0002 0 0 1 .021783 0)"><path id="_x32_1314760" stroke-linejoin="round" d="m721.77 542.62l7.77 19.56" stroke="#c09300" stroke-linecap="round" stroke-width="2.0872" fill="none"/></g><g id="g1990" transform="matrix(1.0002 0 0 1 .021783 0)"><path id="_x32_1314848" stroke-linejoin="round" d="m728.37 567.36l-10.61 10.61-6.6-20.98-6.36 11.79-5.42-12.97-11.55 10.37" stroke="#c09300" stroke-linecap="round" stroke-width="2.0872" fill="none"/></g><g id="g1993" transform="matrix(1.0002 0 0 1 .021783 0)"><path id="_x32_1314936" stroke-linejoin="round" d="m685 571.37l8.01 19.56 9.2-11.79 5.18 15.8 10.37-13.2 4.01 19.8" stroke="#c09300" stroke-linecap="round" stroke-width="2.0872" fill="none"/></g><g id="g1996" transform="matrix(1.0002 0 0 1 .021783 0)"><path id="_x32_1315024" stroke-linejoin="round" d="m683.82 606.72l7.78-10.6 6.6 17.2 7.78-13.2 5.18 15.8 8.02-6.6" stroke="#c09300" stroke-linecap="round" stroke-width="2.0872" fill="none"/></g><g id="g1999" transform="matrix(1.0002 0 0 1 .021783 0)"><path id="_x32_1315112" stroke-linejoin="round" d="m787.05 536.02l-3.77 9.19-11.78-12.96" stroke="#c09300" stroke-linecap="round" stroke-width="2.0872" fill="none"/></g><g id="g2002" transform="matrix(1.0002 0 0 1 .021783 0)"><path id="_x32_1315200" stroke-linejoin="round" d="m772.67 516.46l-3.77 36.53-13.19-16.97" stroke="#c09300" stroke-linecap="round" stroke-width="2.0872" fill="none"/></g><g id="g2005" transform="matrix(1.0002 0 0 1 .021783 0)"><path id="_x32_1315288" stroke-linejoin="round" d="m760.89 542.62l-7.78 19.56" stroke="#c09300" stroke-linecap="round" stroke-width="2.0872" fill="none"/></g><g id="g2008" transform="matrix(1.0002 0 0 1 .021783 0)"><path id="_x32_1315376" stroke-linejoin="round" d="m754.53 567.36l10.37 10.61 5.18-20.98 7.78 11.79 5.42-12.97 11.78 10.37" stroke="#c09300" stroke-linecap="round" stroke-width="2.0872" fill="none"/></g><g id="g2011" transform="matrix(1.0002 0 0 1 .021783 0)"><path id="_x32_1315464" stroke-linejoin="round" d="m797.66 571.37l-8.02 19.56-9.19-11.79-5.18 15.8-10.37-13.2-4.01 19.8" stroke="#c09300" stroke-linecap="round" stroke-width="2.0872" fill="none"/></g><g id="g2014" transform="matrix(1.0002 0 0 1 .021783 0)"><path id="_x32_1315552" stroke-linejoin="round" d="m798.84 606.72l-7.78-10.6-6.6 17.2-7.78-13.2-5.18 15.8-8.02-6.6" stroke="#c09300" stroke-linecap="round" stroke-width="2.0872" fill="none"/></g><g id="g2017" transform="matrix(1.0002 0 0 1 .021783 0)"><path id="_x32_1315640" stroke-linejoin="round" d="m741.33 434.21c13.2 10.37 30.17 15.55 49.73 14.37-1.42 45.73-14.38 77.07-49.73 100.64-35.35-23.57-48.32-54.91-49.73-100.64 19.56 1.18 36.77-4 49.73-14.37z" stroke="#c09300" stroke-linecap="round" stroke-width="1.4648" fill="#fff"/></g><g id="g2022" transform="matrix(1.0002 0 0 1 .021783 0)"><path id="_x32_1315728" stroke-linejoin="round" d="m741.33 544.03c27.57-18.38 43.13-49.73 44.54-91.68-16.97 0-34.17-3.77-44.54-12.96-11.79 9.19-27.34 12.96-45.72 12.96 2.59 41.96 18.38 73.3 45.72 91.68z" stroke="#c09300" stroke-linecap="round" stroke-width="1.9531" fill="#c09300"/></g><g id="g2027" transform="matrix(1.0002 0 0 1 .021783 0)"><path id="_x32_1315816" stroke-linejoin="round" d="m696.79 609.31c10.6 1.42 22.39 2.6 31.58 1.42 5.18 0 8.95 8.95-1.42 10.37-9.19 1.18-23.56 0-31.34-1.42-6.6-1.18-20.98-3.77-30.17-6.36-9.19-4.01-2.59-11.78 2.59-10.6 8.02 2.59 18.39 5.18 28.76 6.59z" stroke="#c09300" stroke-linecap="round" stroke-width="2.0872" fill="#fff"/></g><g id="g2032" transform="matrix(1.0002 0 0 1 .021783 0)"><path id="_x32_1315904" stroke-linejoin="round" d="m785.87 609.31c-10.6 1.42-22.38 2.6-31.34 1.42-5.42 0-9.19 8.95 1.18 10.37 9.19 1.18 23.56 0 31.34-1.42 6.6-1.18 20.97-3.77 30.16-6.36 9.2-4.01 2.6-11.78-2.59-10.6-8.01 2.59-18.38 5.18-28.75 6.59z" stroke="#c09300" stroke-linecap="round" stroke-width="2.0872" fill="#fff"/></g><path id="_x32_1315992" stroke-linejoin="round" d="m664.38 604.13c-8.01-1.41-11.78 7.78-9.19 12.96 1.18-2.59 6.6-2.59 7.78-5.18 1.41-4.01-1.18-4.01 1.41-7.78z" stroke="#c09300" stroke-linecap="round" stroke-width="2.0872" fill="#fff"/><g id="g2041" transform="matrix(1.0002 0 0 1 .021783 0)"><path id="_x32_1316168" stroke-linejoin="round" d="m695.61 628.23c0-5.18 5.18-4.54 5.18-9.73 0-2.59-1.41-6.6-4-6.6-2.6 0-5.19 2.6-5.19 5.19-1.18 5.19 4.01 5.97 4.01 11.14z" stroke="#c09300" stroke-linecap="round" stroke-width="2.0872" fill="#fff"/></g><g id="g2046" transform="matrix(1.0002 0 0 1 .021783 0)"><path id="_x32_1316256" stroke-linejoin="round" d="m732.91 613.32c7.77 0 7.01 10.37 3.23 15.56 0-3.78-6.6-5.19-6.6-7.78 0-4.01 5.96-4.01 3.37-7.78z" stroke="#c09300" stroke-linecap="round" stroke-width="2.0872" fill="#fff"/></g><path id="_x32_1316344" stroke-linejoin="round" d="m818.54 604.13c8.02-1.41 11.79 7.78 9.19 12.96-1.18-2.59-6.6-2.59-7.77-5.18-1.42-4.01 1.18-4.01-1.42-7.78z" stroke="#c09300" stroke-linecap="round" stroke-width="2.0872" fill="#fff"/><g id="g2055" transform="matrix(1.0002 0 0 1 .021783 0)"><path id="_x32_1316520" stroke-linejoin="round" d="m787.05 628.23c0-5.18-5.18-4.54-5.18-9.73 0-2.59 1.41-6.6 4-6.6s5.19 2.6 5.19 5.19c1.18 5.19-4.01 5.97-4.01 11.14z" stroke="#c09300" stroke-linecap="round" stroke-width="2.0872" fill="#fff"/></g><g id="g2060" transform="matrix(1.0002 0 0 1 .021783 0)"><path id="_x32_1316608" stroke-linejoin="round" d="m749.74 613.32c-7.77 0-7 10.37-3.23 15.56 0-3.78 6.6-5.19 6.6-7.78 0-4.01-5.96-4.01-3.37-7.78z" stroke="#c09300" stroke-linecap="round" stroke-width="2.0872" fill="#fff"/></g><path id="_x32_1316696" stroke-linejoin="round" d="m666.98 606.72c2.59 0 6.6 1.18 7.78 2.6l-7.78-2.6z" stroke="#c09300" stroke-linecap="round" stroke-width="1.4648" fill="#fff"/><path id="_x32_1316872" stroke-linejoin="round" d="m679.94 610.73c1.42 0 6.6 1.18 9.19 2.59l-9.19-2.59z" stroke="#c09300" stroke-linecap="round" stroke-width="1.4648" fill="#fff"/><path id="_x32_1317048" stroke-linejoin="round" d="m727.08 615.92c-2.59 0-7.78 0-9.19 1.17l9.19-1.17z" stroke="#c09300" stroke-linecap="round" stroke-width="1.4648" fill="#fff"/><path id="_x32_1317224" stroke-linejoin="round" d="m712.7 615.92c-1.41-1.42-6.6-1.42-9.19 0h9.19z" stroke="#c09300" stroke-linecap="round" stroke-width="1.4648" fill="#fff"/><path id="_x32_1317312" stroke-linejoin="round" d="m815.95 606.72c-2.59 0-6.37 1.18-7.78 2.6l7.78-2.6z" stroke="#c09300" stroke-linecap="round" stroke-width="1.4648" fill="#fff"/><path id="_x32_1317488" stroke-linejoin="round" d="m802.98 610.73c-1.41 0-6.6 1.18-9.19 2.59l9.19-2.59z" stroke="#c09300" stroke-linecap="round" stroke-width="1.4648" fill="#fff"/><path id="_x32_1317664" stroke-linejoin="round" d="m755.84 615.92c2.6 0 7.78 0 9.2 1.17l-9.2-1.17z" stroke="#c09300" stroke-linecap="round" stroke-width="1.4648" fill="#fff"/><path id="_x32_1317840" stroke-linejoin="round" d="m770.22 615.92c1.41-1.42 6.6-1.42 9.19 0h-9.19z" stroke="#c09300" stroke-linecap="round" stroke-width="1.4648" fill="#fff"/><path id="_x32_1318016" stroke-linejoin="round" d="m759.85 358.32c-2.6-6.6-7.27-11.81-13.63-12.99-3.28-0.99-6.67-0.71-10.44-0.71-4.01-1.17-7.28 3.09-8.7 5.68 4.01 2.83 4.91 5.71 6.97 6.6 4 1.42 6 0 10.01-3.77 4-4 13.19-2.83 15.79 5.19z" stroke="#c09300" stroke-linecap="round" stroke-width=".97660" fill="#c09300"/><path id="_x32_1318104" stroke-linejoin="round" d="m734.86 348.19c-2.59 0-2.59 4.01 0 4.01s2.59-4.01 0-4.01z" stroke="#fff" stroke-linecap="round" stroke-width="2.0872" fill="#fff"/><path id="_x32_1318280" fill="#fff" d="m757.49 448.11v82.25c-4.71 5.19-10.13 9.66-16.03 13.67-5.89-4.01-11.31-8.48-16.03-13.67v-82.48c5.9-2.13 11.32-4.95 16.03-8.49 4.48 3.77 9.9 6.6 16.03 8.72z"/></g><g id="black" transform="matrix(1.0006 0 0 1 -.48827 -.00013258)"><rect id="rect5" fill-rule="evenodd" height="333.33" width="1500" stroke="#000" clip-rule="evenodd" y="667.65" x=".977" stroke-width="1.9531"/></g></svg>
