<?xml version="1.0" encoding="UTF-8" standalone="no"?>
<svg
   xmlns:dc="http://purl.org/dc/elements/1.1/"
   xmlns:cc="http://creativecommons.org/ns#"
   xmlns:rdf="http://www.w3.org/1999/02/22-rdf-syntax-ns#"
   xmlns:svg="http://www.w3.org/2000/svg"
   xmlns="http://www.w3.org/2000/svg"
   xmlns:xlink="http://www.w3.org/1999/xlink"
   xmlns:sodipodi="http://sodipodi.sourceforge.net/DTD/sodipodi-0.dtd"
   xmlns:inkscape="http://www.inkscape.org/namespaces/inkscape"
   width="720px"
   height="504px"
   viewBox="-2100 -1470 4200 2940"
   id="svg2"
   version="1.1"
   inkscape:version="0.47 r22583"
   sodipodi:docname="Flag_of_Brazil-simple.svg">
  <metadata
     id="metadata124">
    <rdf:RDF>
      <cc:Work
         rdf:about="">
        <dc:format>image/svg+xml</dc:format>
        <dc:type
           rdf:resource="http://purl.org/dc/dcmitype/StillImage" />
        <dc:title>Flag of Brazil</dc:title>
      </cc:Work>
    </rdf:RDF>
  </metadata>
  <sodipodi:namedview
     pagecolor="#ffffff"
     bordercolor="#666666"
     borderopacity="1"
     objecttolerance="10"
     gridtolerance="10"
     guidetolerance="10"
     inkscape:pageopacity="0"
     inkscape:pageshadow="2"
     inkscape:window-width="640"
     inkscape:window-height="480"
     id="namedview122"
     showgrid="false"
     inkscape:zoom="1.1666667"
     inkscape:cx="360"
     inkscape:cy="302.55118"
     inkscape:current-layer="svg2" />
  <title
     id="title4">Flag of Brazil</title>
  <defs
     id="defs6" />
  <path
     style="fill:#00923f"
     d="M -2100,-1470 L 2100,-1470 L 2100,1470 L -2100,1470 L -2100,-1470 z"
     id="field" />
  <path
     id="rhombus"
     d="M -1743,0 L 0,1113 L 1743,0 L 0,-1113 z"
     fill="#f8c300" />
  <path
     style="fill:#28166f"
     d="M 735,0 C 735,405.92929 405.92929,735 0,735 C -405.92929,735 -735,405.92929 -735,0 C -735,-405.92929 -405.92929,-735 0,-735 C 405.92929,-735 735,-405.92929 735,0 z"
     id="circle" />
  <clipPath
     id="clipcircle">
    <use
       xlink:href="#circle"
       id="use52" />
  </clipPath>
  <path
     id="band"
     d="M -768.23621,-280.70102 C -653.65306,-303.49298 -536.82797,-314.99923 -420,-314.99923 C -303.17203,-314.99923 -186.34694,-303.49298 -71.763786,-280.70102 C 42.819371,-257.90906 155.15493,-223.8325 263.08991,-179.12444 C 478.95986,-89.708318 676.96588,42.594916 842.1856,207.81453 C 842.88521,216.87822 777.16298,287.05719 767.93938,282.06074 C 612.43848,126.55992 426.07987,2.0392301 222.90815,-82.11712 C 121.32229,-124.19529 15.594702,-156.26735 -92.248269,-177.71861 C -200.09124,-199.16987 -310.04426,-209.99927 -420,-209.99927 C -529.95574,-209.99927 -639.90876,-199.16987 -747.75173,-177.71861 C -754.43858,-178.95144 -777.27823,-266.30088 -768.23621,-280.70102 z"
     clip-path="url(#clipcircle)"
     fill="white"
     sodipodi:nodetypes="csssccssscc" />
</svg>
