<?xml version="1.0" encoding="UTF-8" standalone="no"?>
<svg
   xmlns:dc="http://purl.org/dc/elements/1.1/"
   xmlns:cc="http://creativecommons.org/ns#"
   xmlns:rdf="http://www.w3.org/1999/02/22-rdf-syntax-ns#"
   xmlns:svg="http://www.w3.org/2000/svg"
   xmlns="http://www.w3.org/2000/svg"
   xmlns:sodipodi="http://sodipodi.sourceforge.net/DTD/sodipodi-0.dtd"
   xmlns:inkscape="http://www.inkscape.org/namespaces/inkscape"
   width="756"
   height="504"
   viewBox="-910 -585 1755 1170"
   id="svg2"
   version="1.1"
   inkscape:version="0.47 r22583"
   sodipodi:docname="All-Fl-svg-ARG.svg">
  <metadata
     id="metadata52">
    <rdf:RDF>
      <cc:Work
         rdf:about="">
        <dc:format>image/svg+xml</dc:format>
        <dc:type
           rdf:resource="http://purl.org/dc/dcmitype/StillImage" />
      </cc:Work>
    </rdf:RDF>
  </metadata>
  <defs
     id="defs50" />
  <sodipodi:namedview
     pagecolor="#ffffff"
     bordercolor="#666666"
     borderopacity="1"
     objecttolerance="10"
     gridtolerance="10"
     guidetolerance="10"
     inkscape:pageopacity="0"
     inkscape:pageshadow="2"
     inkscape:window-width="640"
     inkscape:window-height="480"
     id="namedview48"
     showgrid="false"
     inkscape:zoom="1.1666667"
     inkscape:cx="378"
     inkscape:cy="252"
     inkscape:current-layer="svg2" />
  <title
     id="title4">Flag of Argentina</title>
  <rect
     id="blue"
     x="-910"
     y="-585"
     width="1755"
     height="1170"
     style="fill:#75aadb" />
  <rect
     id="white"
     x="-910"
     y="-195"
     width="1755"
     height="390"
     style="fill:#ffffff" />
  <g
     style="fill:#fcbf49;stroke:#843511;stroke-width:1.5"
     id="16rays"
     transform="translate(-32.5,0)">
    <g
       id="8rays">
      <g
         id="4rays">
        <g
           id="2rays">
          <path
             id="path13"
             d="M -8,0 C -5.8525006,53.66014 -4.2188552,107.37255 -1.75,161 C 4.4254887,164.36699 1.4196449,150.87485 2.4860039,146.5804 C 4.3240026,97.720265 6.1620013,48.860132 8,0" />
          <path
             id="path15"
             d="M -4,0 C -2.6666667,36.5 -1.3333333,73 0,109.5 C 1.3333333,73 2.6666667,36.5 4,0"
             style="fill:#843511;stroke:none" />
          <g
             id="g17"
             transform="matrix(0.9799247,0.19936793,-0.19936793,0.9799247,0,0)">
            <path
               id="path19"
               d="M -4.5,53.5 C -9.67974,72.93596 2.3697738,92.76459 -4.8724365,111.99243 C -11.347188,128.35497 6.0681842,144.76506 -3.234375,159.96094 C 8.490446,161.53186 5.4668154,137.17261 2.4335938,127.65674 C 2.1208341,111.06806 10.69675,95.121081 5.97229,78.361633 C 4.9433689,70.863334 5.4919155,63.167003 8,56" />
            <path
               id="path21"
               d="M -1,58 C -4.2778428,75.089917 5.9714475,92.157257 0,109 C 7.9095781,93.367529 -2.1431452,75.426798 3,59"
               style="fill:#843511;stroke:none" />
          </g>
        </g>
        <g
           id="use23"
           transform="scale(-1,-1)">
          <path
             d="M -8,0 C -5.8525006,53.66014 -4.2188552,107.37255 -1.75,161 C 4.4254887,164.36699 1.4196449,150.87485 2.4860039,146.5804 C 4.3240026,97.720265 6.1620013,48.860132 8,0"
             id="path3112" />
          <path
             style="fill:#843511;stroke:none"
             d="M -4,0 C -2.6666667,36.5 -1.3333333,73 0,109.5 C 1.3333333,73 2.6666667,36.5 4,0"
             id="path3114" />
          <g
             transform="matrix(0.9799247,0.19936793,-0.19936793,0.9799247,0,0)"
             id="g3116">
            <path
               d="M -4.5,53.5 C -9.67974,72.93596 2.3697738,92.76459 -4.8724365,111.99243 C -11.347188,128.35497 6.0681842,144.76506 -3.234375,159.96094 C 8.490446,161.53186 5.4668154,137.17261 2.4335938,127.65674 C 2.1208341,111.06806 10.69675,95.121081 5.97229,78.361633 C 4.9433689,70.863334 5.4919155,63.167003 8,56"
               id="path3118" />
            <path
               style="fill:#843511;stroke:none"
               d="M -1,58 C -4.2778428,75.089917 5.9714475,92.157257 0,109 C 7.9095781,93.367529 -2.1431452,75.426798 3,59"
               id="path3120" />
          </g>
        </g>
      </g>
      <g
         id="use25"
         transform="matrix(0,1,-1,0,0,0)">
        <g
           id="g3124">
          <path
             d="M -8,0 C -5.8525006,53.66014 -4.2188552,107.37255 -1.75,161 C 4.4254887,164.36699 1.4196449,150.87485 2.4860039,146.5804 C 4.3240026,97.720265 6.1620013,48.860132 8,0"
             id="path3126" />
          <path
             style="fill:#843511;stroke:none"
             d="M -4,0 C -2.6666667,36.5 -1.3333333,73 0,109.5 C 1.3333333,73 2.6666667,36.5 4,0"
             id="path3128" />
          <g
             transform="matrix(0.9799247,0.19936793,-0.19936793,0.9799247,0,0)"
             id="g3130">
            <path
               d="M -4.5,53.5 C -9.67974,72.93596 2.3697738,92.76459 -4.8724365,111.99243 C -11.347188,128.35497 6.0681842,144.76506 -3.234375,159.96094 C 8.490446,161.53186 5.4668154,137.17261 2.4335938,127.65674 C 2.1208341,111.06806 10.69675,95.121081 5.97229,78.361633 C 4.9433689,70.863334 5.4919155,63.167003 8,56"
               id="path3132" />
            <path
               style="fill:#843511;stroke:none"
               d="M -1,58 C -4.2778428,75.089917 5.9714475,92.157257 0,109 C 7.9095781,93.367529 -2.1431452,75.426798 3,59"
               id="path3134" />
          </g>
        </g>
        <g
           transform="scale(-1,-1)"
           id="g3136">
          <path
             id="path3138"
             d="M -8,0 C -5.8525006,53.66014 -4.2188552,107.37255 -1.75,161 C 4.4254887,164.36699 1.4196449,150.87485 2.4860039,146.5804 C 4.3240026,97.720265 6.1620013,48.860132 8,0" />
          <path
             id="path3140"
             d="M -4,0 C -2.6666667,36.5 -1.3333333,73 0,109.5 C 1.3333333,73 2.6666667,36.5 4,0"
             style="fill:#843511;stroke:none" />
          <g
             id="g3142"
             transform="matrix(0.9799247,0.19936793,-0.19936793,0.9799247,0,0)">
            <path
               id="path3144"
               d="M -4.5,53.5 C -9.67974,72.93596 2.3697738,92.76459 -4.8724365,111.99243 C -11.347188,128.35497 6.0681842,144.76506 -3.234375,159.96094 C 8.490446,161.53186 5.4668154,137.17261 2.4335938,127.65674 C 2.1208341,111.06806 10.69675,95.121081 5.97229,78.361633 C 4.9433689,70.863334 5.4919155,63.167003 8,56" />
            <path
               id="path3146"
               d="M -1,58 C -4.2778428,75.089917 5.9714475,92.157257 0,109 C 7.9095781,93.367529 -2.1431452,75.426798 3,59"
               style="fill:#843511;stroke:none" />
          </g>
        </g>
      </g>
    </g>
    <g
       id="use27"
       transform="matrix(0.70710678,0.70710678,-0.70710678,0.70710678,0,0)">
      <g
         id="g3150">
        <g
           id="g3152">
          <path
             d="M -8,0 C -5.8525006,53.66014 -4.2188552,107.37255 -1.75,161 C 4.4254887,164.36699 1.4196449,150.87485 2.4860039,146.5804 C 4.3240026,97.720265 6.1620013,48.860132 8,0"
             id="path3154" />
          <path
             style="fill:#843511;stroke:none"
             d="M -4,0 C -2.6666667,36.5 -1.3333333,73 0,109.5 C 1.3333333,73 2.6666667,36.5 4,0"
             id="path3156" />
          <g
             transform="matrix(0.9799247,0.19936793,-0.19936793,0.9799247,0,0)"
             id="g3158">
            <path
               d="M -4.5,53.5 C -9.67974,72.93596 2.3697738,92.76459 -4.8724365,111.99243 C -11.347188,128.35497 6.0681842,144.76506 -3.234375,159.96094 C 8.490446,161.53186 5.4668154,137.17261 2.4335938,127.65674 C 2.1208341,111.06806 10.69675,95.121081 5.97229,78.361633 C 4.9433689,70.863334 5.4919155,63.167003 8,56"
               id="path3160" />
            <path
               style="fill:#843511;stroke:none"
               d="M -1,58 C -4.2778428,75.089917 5.9714475,92.157257 0,109 C 7.9095781,93.367529 -2.1431452,75.426798 3,59"
               id="path3162" />
          </g>
        </g>
        <g
           transform="scale(-1,-1)"
           id="g3164">
          <path
             id="path3166"
             d="M -8,0 C -5.8525006,53.66014 -4.2188552,107.37255 -1.75,161 C 4.4254887,164.36699 1.4196449,150.87485 2.4860039,146.5804 C 4.3240026,97.720265 6.1620013,48.860132 8,0" />
          <path
             id="path3168"
             d="M -4,0 C -2.6666667,36.5 -1.3333333,73 0,109.5 C 1.3333333,73 2.6666667,36.5 4,0"
             style="fill:#843511;stroke:none" />
          <g
             id="g3170"
             transform="matrix(0.9799247,0.19936793,-0.19936793,0.9799247,0,0)">
            <path
               id="path3172"
               d="M -4.5,53.5 C -9.67974,72.93596 2.3697738,92.76459 -4.8724365,111.99243 C -11.347188,128.35497 6.0681842,144.76506 -3.234375,159.96094 C 8.490446,161.53186 5.4668154,137.17261 2.4335938,127.65674 C 2.1208341,111.06806 10.69675,95.121081 5.97229,78.361633 C 4.9433689,70.863334 5.4919155,63.167003 8,56" />
            <path
               id="path3174"
               d="M -1,58 C -4.2778428,75.089917 5.9714475,92.157257 0,109 C 7.9095781,93.367529 -2.1431452,75.426798 3,59"
               style="fill:#843511;stroke:none" />
          </g>
        </g>
      </g>
      <g
         transform="matrix(0,1,-1,0,0,0)"
         id="g3176">
        <g
           id="g3178">
          <path
             id="path3180"
             d="M -8,0 C -5.8525006,53.66014 -4.2188552,107.37255 -1.75,161 C 4.4254887,164.36699 1.4196449,150.87485 2.4860039,146.5804 C 4.3240026,97.720265 6.1620013,48.860132 8,0" />
          <path
             id="path3182"
             d="M -4,0 C -2.6666667,36.5 -1.3333333,73 0,109.5 C 1.3333333,73 2.6666667,36.5 4,0"
             style="fill:#843511;stroke:none" />
          <g
             id="g3184"
             transform="matrix(0.9799247,0.19936793,-0.19936793,0.9799247,0,0)">
            <path
               id="path3186"
               d="M -4.5,53.5 C -9.67974,72.93596 2.3697738,92.76459 -4.8724365,111.99243 C -11.347188,128.35497 6.0681842,144.76506 -3.234375,159.96094 C 8.490446,161.53186 5.4668154,137.17261 2.4335938,127.65674 C 2.1208341,111.06806 10.69675,95.121081 5.97229,78.361633 C 4.9433689,70.863334 5.4919155,63.167003 8,56" />
            <path
               id="path3188"
               d="M -1,58 C -4.2778428,75.089917 5.9714475,92.157257 0,109 C 7.9095781,93.367529 -2.1431452,75.426798 3,59"
               style="fill:#843511;stroke:none" />
          </g>
        </g>
        <g
           id="g3190"
           transform="scale(-1,-1)">
          <path
             d="M -8,0 C -5.8525006,53.66014 -4.2188552,107.37255 -1.75,161 C 4.4254887,164.36699 1.4196449,150.87485 2.4860039,146.5804 C 4.3240026,97.720265 6.1620013,48.860132 8,0"
             id="path3192" />
          <path
             style="fill:#843511;stroke:none"
             d="M -4,0 C -2.6666667,36.5 -1.3333333,73 0,109.5 C 1.3333333,73 2.6666667,36.5 4,0"
             id="path3194" />
          <g
             transform="matrix(0.9799247,0.19936793,-0.19936793,0.9799247,0,0)"
             id="g3196">
            <path
               d="M -4.5,53.5 C -9.67974,72.93596 2.3697738,92.76459 -4.8724365,111.99243 C -11.347188,128.35497 6.0681842,144.76506 -3.234375,159.96094 C 8.490446,161.53186 5.4668154,137.17261 2.4335938,127.65674 C 2.1208341,111.06806 10.69675,95.121081 5.97229,78.361633 C 4.9433689,70.863334 5.4919155,63.167003 8,56"
               id="path3198" />
            <path
               style="fill:#843511;stroke:none"
               d="M -1,58 C -4.2778428,75.089917 5.9714475,92.157257 0,109 C 7.9095781,93.367529 -2.1431452,75.426798 3,59"
               id="path3200" />
          </g>
        </g>
      </g>
    </g>
  </g>
  <g
     style="fill:#fcbf49;stroke:#843511;stroke-width:1.5"
     id="g2889"
     transform="matrix(0.92387953,0.38268343,-0.38268343,0.92387953,-32.5,0)">
    <g
       id="g2891">
      <g
         id="g2893">
        <path
           d="M -8,0 C -5.8525222,53.660142 -4.2188262,107.37255 -1.75,161 C 4.4109463,164.37989 1.4258395,150.93426 2.4831276,146.65686 C 4.322085,97.771239 6.1610425,48.88562 8,0"
           id="path2895" />
        <path
           style="fill:#843511;stroke:none"
           d="M -4,0 C -2.6666667,36.5 -1.3333333,73 0,109.5 C 1.3333333,73 2.6666667,36.5 4,0"
           id="path2897" />
        <g
           id="g2899"
           transform="matrix(0.9799247,0.19936793,-0.19936793,0.9799247,0,0)">
          <path
             d="M -4.5,53.5 C -9.67974,72.93596 2.3697738,92.76459 -4.8724365,111.99243 C -11.347188,128.35497 6.0681842,144.76506 -3.234375,159.96094 C 8.490446,161.53186 5.4668154,137.17261 2.4335938,127.65674 C 2.1208341,111.06806 10.69675,95.121081 5.97229,78.361633 C 4.9433689,70.863334 5.4919155,63.167003 8,56"
             id="path2901" />
          <path
             style="fill:#843511;stroke:none"
             d="M -1,58 C -4.2778428,75.089917 5.9714475,92.157257 0,109 C 7.9095781,93.367529 -2.1431452,75.426798 3,59"
             id="path2903" />
        </g>
      </g>
      <g
         id="use2905"
         transform="scale(-1,-1)">
        <path
           d="M -8,0 C -5.8525006,53.66014 -4.2188552,107.37255 -1.75,161 C 4.4254887,164.36699 1.4196449,150.87485 2.4860039,146.5804 C 4.3240026,97.720265 6.1620013,48.860132 8,0"
           id="path3284" />
        <path
           style="fill:#843511;stroke:none"
           d="M -4,0 C -2.6666667,36.5 -1.3333333,73 0,109.5 C 1.3333333,73 2.6666667,36.5 4,0"
           id="path3286" />
        <g
           transform="matrix(0.9799247,0.19936793,-0.19936793,0.9799247,0,0)"
           id="g3288">
          <path
             d="M -4.5,53.5 C -9.67974,72.93596 2.3697738,92.76459 -4.8724365,111.99243 C -11.347188,128.35497 6.0681842,144.76506 -3.234375,159.96094 C 8.490446,161.53186 5.4668154,137.17261 2.4335938,127.65674 C 2.1208341,111.06806 10.69675,95.121081 5.97229,78.361633 C 4.9433689,70.863334 5.4919155,63.167003 8,56"
             id="path3290" />
          <path
             style="fill:#843511;stroke:none"
             d="M -1,58 C -4.2778428,75.089917 5.9714475,92.157257 0,109 C 7.9095781,93.367529 -2.1431452,75.426798 3,59"
             id="path3292" />
        </g>
      </g>
    </g>
    <g
       id="use2907"
       transform="matrix(0,1,-1,0,0,0)">
      <g
         id="g3258">
        <path
           d="M -8,0 C -5.8525006,53.66014 -4.2188552,107.37255 -1.75,161 C 4.4254887,164.36699 1.4196449,150.87485 2.4860039,146.5804 C 4.3240026,97.720265 6.1620013,48.860132 8,0"
           id="path3260" />
        <path
           style="fill:#843511;stroke:none"
           d="M -4,0 C -2.6666667,36.5 -1.3333333,73 0,109.5 C 1.3333333,73 2.6666667,36.5 4,0"
           id="path3262" />
        <g
           transform="matrix(0.9799247,0.19936793,-0.19936793,0.9799247,0,0)"
           id="g3264">
          <path
             d="M -4.5,53.5 C -9.67974,72.93596 2.3697738,92.76459 -4.8724365,111.99243 C -11.347188,128.35497 6.0681842,144.76506 -3.234375,159.96094 C 8.490446,161.53186 5.4668154,137.17261 2.4335938,127.65674 C 2.1208341,111.06806 10.69675,95.121081 5.97229,78.361633 C 4.9433689,70.863334 5.4919155,63.167003 8,56"
             id="path3266" />
          <path
             style="fill:#843511;stroke:none"
             d="M -1,58 C -4.2778428,75.089917 5.9714475,92.157257 0,109 C 7.9095781,93.367529 -2.1431452,75.426798 3,59"
             id="path3268" />
        </g>
      </g>
      <g
         transform="scale(-1,-1)"
         id="g3270">
        <path
           id="path3272"
           d="M -8,0 C -5.8525006,53.66014 -4.2188552,107.37255 -1.75,161 C 4.4254887,164.36699 1.4196449,150.87485 2.4860039,146.5804 C 4.3240026,97.720265 6.1620013,48.860132 8,0" />
        <path
           id="path3274"
           d="M -4,0 C -2.6666667,36.5 -1.3333333,73 0,109.5 C 1.3333333,73 2.6666667,36.5 4,0"
           style="fill:#843511;stroke:none" />
        <g
           id="g3276"
           transform="matrix(0.9799247,0.19936793,-0.19936793,0.9799247,0,0)">
          <path
             id="path3278"
             d="M -4.5,53.5 C -9.67974,72.93596 2.3697738,92.76459 -4.8724365,111.99243 C -11.347188,128.35497 6.0681842,144.76506 -3.234375,159.96094 C 8.490446,161.53186 5.4668154,137.17261 2.4335938,127.65674 C 2.1208341,111.06806 10.69675,95.121081 5.97229,78.361633 C 4.9433689,70.863334 5.4919155,63.167003 8,56" />
          <path
             id="path3280"
             d="M -1,58 C -4.2778428,75.089917 5.9714475,92.157257 0,109 C 7.9095781,93.367529 -2.1431452,75.426798 3,59"
             style="fill:#843511;stroke:none" />
        </g>
      </g>
    </g>
  </g>
  <g
     id="use2909"
     style="fill:#fcbf49;stroke:#843511;stroke-width:1.5"
     transform="matrix(0.38268343,0.92387953,-0.92387953,0.38268343,-32.5,0)">
    <g
       id="g3204">
      <g
         id="g3206">
        <path
           d="M -8,0 C -5.8525006,53.66014 -4.2188552,107.37255 -1.75,161 C 4.4254887,164.36699 1.4196449,150.87485 2.4860039,146.5804 C 4.3240026,97.720265 6.1620013,48.860132 8,0"
           id="path3208" />
        <path
           style="fill:#843511;stroke:none"
           d="M -4,0 C -2.6666667,36.5 -1.3333333,73 0,109.5 C 1.3333333,73 2.6666667,36.5 4,0"
           id="path3210" />
        <g
           transform="matrix(0.9799247,0.19936793,-0.19936793,0.9799247,0,0)"
           id="g3212">
          <path
             d="M -4.5,53.5 C -9.67974,72.93596 2.3697738,92.76459 -4.8724365,111.99243 C -11.347188,128.35497 6.0681842,144.76506 -3.234375,159.96094 C 8.490446,161.53186 5.4668154,137.17261 2.4335938,127.65674 C 2.1208341,111.06806 10.69675,95.121081 5.97229,78.361633 C 4.9433689,70.863334 5.4919155,63.167003 8,56"
             id="path3214" />
          <path
             style="fill:#843511;stroke:none"
             d="M -1,58 C -4.2778428,75.089917 5.9714475,92.157257 0,109 C 7.9095781,93.367529 -2.1431452,75.426798 3,59"
             id="path3216" />
        </g>
      </g>
      <g
         transform="scale(-1,-1)"
         id="g3218">
        <path
           id="path3220"
           d="M -8,0 C -5.8525006,53.66014 -4.2188552,107.37255 -1.75,161 C 4.4254887,164.36699 1.4196449,150.87485 2.4860039,146.5804 C 4.3240026,97.720265 6.1620013,48.860132 8,0" />
        <path
           id="path3222"
           d="M -4,0 C -2.6666667,36.5 -1.3333333,73 0,109.5 C 1.3333333,73 2.6666667,36.5 4,0"
           style="fill:#843511;stroke:none" />
        <g
           id="g3224"
           transform="matrix(0.9799247,0.19936793,-0.19936793,0.9799247,0,0)">
          <path
             id="path3226"
             d="M -4.5,53.5 C -9.67974,72.93596 2.3697738,92.76459 -4.8724365,111.99243 C -11.347188,128.35497 6.0681842,144.76506 -3.234375,159.96094 C 8.490446,161.53186 5.4668154,137.17261 2.4335938,127.65674 C 2.1208341,111.06806 10.69675,95.121081 5.97229,78.361633 C 4.9433689,70.863334 5.4919155,63.167003 8,56" />
          <path
             id="path3228"
             d="M -1,58 C -4.2778428,75.089917 5.9714475,92.157257 0,109 C 7.9095781,93.367529 -2.1431452,75.426798 3,59"
             style="fill:#843511;stroke:none" />
        </g>
      </g>
    </g>
    <g
       transform="matrix(0,1,-1,0,0,0)"
       id="g3230">
      <g
         id="g3232">
        <path
           id="path3234"
           d="M -8,0 C -5.8525006,53.66014 -4.2188552,107.37255 -1.75,161 C 4.4254887,164.36699 1.4196449,150.87485 2.4860039,146.5804 C 4.3240026,97.720265 6.1620013,48.860132 8,0" />
        <path
           id="path3236"
           d="M -4,0 C -2.6666667,36.5 -1.3333333,73 0,109.5 C 1.3333333,73 2.6666667,36.5 4,0"
           style="fill:#843511;stroke:none" />
        <g
           id="g3238"
           transform="matrix(0.9799247,0.19936793,-0.19936793,0.9799247,0,0)">
          <path
             id="path3240"
             d="M -4.5,53.5 C -9.67974,72.93596 2.3697738,92.76459 -4.8724365,111.99243 C -11.347188,128.35497 6.0681842,144.76506 -3.234375,159.96094 C 8.490446,161.53186 5.4668154,137.17261 2.4335938,127.65674 C 2.1208341,111.06806 10.69675,95.121081 5.97229,78.361633 C 4.9433689,70.863334 5.4919155,63.167003 8,56" />
          <path
             id="path3242"
             d="M -1,58 C -4.2778428,75.089917 5.9714475,92.157257 0,109 C 7.9095781,93.367529 -2.1431452,75.426798 3,59"
             style="fill:#843511;stroke:none" />
        </g>
      </g>
      <g
         id="g3244"
         transform="scale(-1,-1)">
        <path
           d="M -8,0 C -5.8525006,53.66014 -4.2188552,107.37255 -1.75,161 C 4.4254887,164.36699 1.4196449,150.87485 2.4860039,146.5804 C 4.3240026,97.720265 6.1620013,48.860132 8,0"
           id="path3246" />
        <path
           style="fill:#843511;stroke:none"
           d="M -4,0 C -2.6666667,36.5 -1.3333333,73 0,109.5 C 1.3333333,73 2.6666667,36.5 4,0"
           id="path3248" />
        <g
           transform="matrix(0.9799247,0.19936793,-0.19936793,0.9799247,0,0)"
           id="g3250">
          <path
             d="M -4.5,53.5 C -9.67974,72.93596 2.3697738,92.76459 -4.8724365,111.99243 C -11.347188,128.35497 6.0681842,144.76506 -3.234375,159.96094 C 8.490446,161.53186 5.4668154,137.17261 2.4335938,127.65674 C 2.1208341,111.06806 10.69675,95.121081 5.97229,78.361633 C 4.9433689,70.863334 5.4919155,63.167003 8,56"
             id="path3252" />
          <path
             style="fill:#843511;stroke:none"
             d="M -1,58 C -4.2778428,75.089917 5.9714475,92.157257 0,109 C 7.9095781,93.367529 -2.1431452,75.426798 3,59"
             id="path3254" />
        </g>
      </g>
    </g>
  </g>
  <path
     id="circle31"
     d="M 32.5,0 C 33.633003,37.195009 -2.257126,69.587869 -39.145872,64.664412 C -76.212382,61.971807 -104.75088,23.075804 -96.179431,-13.099767 C -89.763071,-49.669488 -48.299616,-74.160363 -13.170988,-62.077729 C 13.486149,-54.128711 32.907213,-27.849427 32.5,0 z"
     style="fill:#fcbf49;stroke:#843511;stroke-width:1" />
  <g
     style="fill:#843511;stroke:none"
     id="face_right"
     transform="translate(-32.5,0)">
    <path
       id="eyebrow_nose"
       d="M 41,-14 C 28.963952,-27.745456 -6.3622309,-26.561538 5.5986688,2.150444 C -2.8948393,7.7446822 2.9380859,40.560316 8.5,8.5 C -5.3999614,12.485084 3.6156847,-15.123138 6.1074219,-20.591797 C 17.250698,-29.335179 33.555799,-25.856863 41,-14 z" />
    <path
       id="uppalpebra"
       d="M 23,-17 C 15.446019,-19.357674 -0.88104396,-2.5686145 14,-13 C 20.795701,-23.702959 47.046487,-1.1682479 32.404297,-14.442383 C 29.566721,-16.096641 26.291509,-17.010964 23,-17 z" />
    <path
       id="upeyecontour"
       d="M 34.5,-8.5 C 30.492528,-17.248732 9.7992563,-13.421288 13,-8 C 15.870114,-13.986549 29.334131,-15.070018 31,-8" />
    <path
       id="pupil"
       d="M 26.5,-9 C 19.247304,5.88723 13.647262,-21.639578 26.146368,-10.751603 L 26.5,-9 L 26.5,-9 z" />
    <path
       id="loweyecontour"
       d="M 11,-8 C 16.999511,3.0238107 44.604221,-14.376604 26.78125,-5.9609375 C 22.854121,-4.1464268 14.57303,-4.6494527 13,-9" />
    <path
       id="lowpalpebra"
       d="M 35,-6 C 30.528874,3.5072465 6.1886245,-3.1328454 10.875,-6.25 C 18.137192,-0.57042346 27.260302,-2.7842539 35,-6 z" />
    <path
       id="nose"
       d="M 10.5,9 C 15.280875,10.674975 10.275475,17.674187 7.144975,13.69144 C 6.309567,9.7836475 -7.5472252,20.489289 4.359375,16.867188 C 6.6435629,15.463963 10.440252,20.173653 13.036364,16.437338 C 15.404459,13.948518 13.899517,9.5251709 10.5,9 z" />
    <path
       id="uplip"
       d="M 16.5,30 C 14.088681,25.011695 -0.33419614,18.905125 0,25.5 C 6.6801543,21.983514 10.99389,26.982179 16.5,30 z" />
    <path
       id="midlip"
       d="M 15,30 C 8.1669326,24.997911 -10.527001,32.539224 7.3535156,29.4375 C 9.9087807,29.117627 12.502003,29.450038 15,30 z" />
    <path
       id="path43"
       d="M 16.5,30 C 11.54093,29.110519 -10.308644,39.275286 5.7421875,36.046875 C 9.273553,33.792704 11.619022,29.556797 16.5,30 z" />
    <path
       id="chin"
       d="M 9,46 C 9.5607373,36.244365 -5.7403182,33.605289 -8.4800011,42.985107 C -10.751926,49.63806 -3.9176707,35.024719 1.4940154,39.007451 C 5.1110498,39.55873 8.1939575,42.430766 9,46 z" />
  </g>
  <g
     id="use46"
     style="fill:#843511;stroke:none"
     transform="matrix(-1,0,0,1,-32.5,0)">
    <path
       id="path2913"
       d="M 41,-14 C 28.963952,-27.745456 -6.3622309,-26.561538 5.5986688,2.150444 C -2.8948393,7.7446822 2.9380859,40.560316 8.5,8.5 C -5.3999614,12.485084 3.6156847,-15.123138 6.1074219,-20.591797 C 17.250698,-29.335179 33.555799,-25.856863 41,-14 z" />
    <path
       id="path2915"
       d="M 23,-17 C 15.446019,-19.357674 -0.88104396,-2.5686145 14,-13 C 20.795701,-23.702959 47.046487,-1.1682479 32.404297,-14.442383 C 29.566721,-16.096641 26.291509,-17.010964 23,-17 z" />
    <path
       id="path2917"
       d="M 34.5,-8.5 C 30.492528,-17.248732 9.7992563,-13.421288 13,-8 C 15.870114,-13.986549 29.334131,-15.070018 31,-8" />
    <path
       id="circle2919"
       d="M 26.5,-9 C 19.247304,5.88723 13.647262,-21.639578 26.146368,-10.751603 L 26.5,-9 L 26.5,-9 z" />
    <path
       id="path2921"
       d="M 11,-8 C 16.999511,3.0238107 44.604221,-14.376604 26.78125,-5.9609375 C 22.854121,-4.1464268 14.57303,-4.6494527 13,-9" />
    <path
       id="path2923"
       d="M 35,-6 C 30.528874,3.5072465 6.1886245,-3.1328454 10.875,-6.25 C 18.137192,-0.57042346 27.260302,-2.7842539 35,-6 z" />
    <path
       id="path2925"
       d="M 10.5,9 C 15.280875,10.674975 10.275475,17.674187 7.144975,13.69144 C 6.309567,9.7836475 -7.5472252,20.489289 4.359375,16.867188 C 6.6435629,15.463963 10.440252,20.173653 13.036364,16.437338 C 15.404459,13.948518 13.899517,9.5251709 10.5,9 z" />
    <path
       id="path2927"
       d="M 16.5,30 C 14.088681,25.011695 -0.33419614,18.905125 0,25.5 C 6.6801543,21.983514 10.99389,26.982179 16.5,30 z" />
    <path
       id="path2929"
       d="M 15,30 C 8.1669326,24.997911 -10.527001,32.539224 7.3535156,29.4375 C 9.9087807,29.117627 12.502003,29.450038 15,30 z" />
    <path
       id="path2931"
       d="M 16.5,30 C 11.54093,29.110519 -10.308644,39.275286 5.7421875,36.046875 C 9.273553,33.792704 11.619022,29.556797 16.5,30 z" />
    <path
       id="path2933"
       d="M 9,46 C 9.5607373,36.244365 -5.7403182,33.605289 -8.4800011,42.985107 C -10.751926,49.63806 -3.9176707,35.024719 1.4940154,39.007451 C 5.1110498,39.55873 8.1939575,42.430766 9,46 z" />
  </g>
</svg>
