<?xml version="1.0" encoding="UTF-8" standalone="no"?>
<!-- Created with Inkscape (http://www.inkscape.org/) -->

<svg
   xmlns:dc="http://purl.org/dc/elements/1.1/"
   xmlns:cc="http://creativecommons.org/ns#"
   xmlns:rdf="http://www.w3.org/1999/02/22-rdf-syntax-ns#"
   xmlns:svg="http://www.w3.org/2000/svg"
   xmlns="http://www.w3.org/2000/svg"
   xmlns:sodipodi="http://sodipodi.sourceforge.net/DTD/sodipodi-0.dtd"
   xmlns:inkscape="http://www.inkscape.org/namespaces/inkscape"
   width="14.99874"
   height="9.6312504"
   id="svg20187"
   version="1.1"
   inkscape:version="0.48.4 r9939"
   sodipodi:docname="bed-B.svg">
  <defs
     id="defs20189" />
  <sodipodi:namedview
     id="base"
     pagecolor="#ffffff"
     bordercolor="#666666"
     borderopacity="1.0"
     inkscape:pageopacity="0.0"
     inkscape:pageshadow="2"
     inkscape:zoom="24.503569"
     inkscape:cx="7.49937"
     inkscape:cy="4.815625"
     inkscape:document-units="px"
     inkscape:current-layer="layer1"
     showgrid="false"
     fit-margin-top="0"
     fit-margin-left="0"
     fit-margin-right="0"
     fit-margin-bottom="0" />
  <metadata
     id="metadata20192">
    <rdf:RDF>
      <cc:Work
         rdf:about="">
        <dc:format>image/svg+xml</dc:format>
        <dc:type
           rdf:resource="http://purl.org/dc/dcmitype/StillImage" />
        <dc:title></dc:title>
      </cc:Work>
    </rdf:RDF>
  </metadata>
  <g
     inkscape:label="Livello 1"
     inkscape:groupmode="layer"
     id="layer1"
     transform="translate(-367.50063,-527.54656)">
    <path
       inkscape:connector-curvature="0"
       id="path1732"
       style="fill:#ffffff;fill-opacity:1;fill-rule:nonzero;stroke:none"
       d="M 373.76188,529.52156 L 379.54563,529.52156 C 379.66187,529.52156 379.77938,529.54781 379.90688,529.60156 C 380.03313,529.65781 380.14812,529.73156 380.25812,529.82156 C 380.36813,529.91406 380.45562,530.01656 380.52562,530.13156 C 380.59188,530.24906 380.62437,530.37156 380.62437,530.50031 L 380.62437,532.75156 L 373.76188,532.75156 L 373.76188,529.52156 z M 369.30313,529.89781 C 369.30313,529.70906 369.33812,529.53156 369.41563,529.36281 C 369.48687,529.19656 369.59188,529.05031 369.71562,528.92781 C 369.83938,528.79906 369.98687,528.70156 370.15188,528.63281 C 370.32062,528.55906 370.49937,528.52281 370.68938,528.52281 C 370.88938,528.52281 371.07688,528.55906 371.24687,528.63281 C 371.41813,528.70156 371.56313,528.79906 371.68437,528.92781 C 371.80937,529.05031 371.90188,529.19906 371.97063,529.37281 C 372.03937,529.54656 372.07188,529.73156 372.07188,529.92906 C 372.07188,530.12406 372.03937,530.31031 371.97063,530.47906 C 371.90188,530.64656 371.80937,530.79656 371.68437,530.91531 C 371.56313,531.04031 371.41813,531.13531 371.25312,531.20156 C 371.08812,531.26906 370.90438,531.30406 370.69812,531.30406 C 370.49937,531.30406 370.32062,531.26906 370.15188,531.19656 C 369.98687,531.12781 369.83938,531.02781 369.71062,530.90281 C 369.58062,530.77656 369.48187,530.62781 369.41063,530.45906 C 369.33812,530.28781 369.30313,530.10281 369.30313,529.89781 M 369.26062,532.15781 C 369.26062,532.07281 369.28062,531.98531 369.31938,531.89906 C 369.35563,531.81406 369.40438,531.73781 369.46438,531.67281 C 369.52562,531.60156 369.59937,531.54781 369.68437,531.50906 C 369.77062,531.46781 369.85813,531.44531 369.95438,531.44531 L 372.19312,531.44531 L 372.19312,530.06156 C 372.19312,529.98031 372.21562,529.90531 372.25938,529.83906 C 372.30313,529.77031 372.36187,529.71156 372.42813,529.66031 C 372.49563,529.60906 372.57062,529.56781 372.65312,529.53656 C 372.73313,529.50656 372.81187,529.49281 372.88688,529.49281 C 372.94812,529.49281 373.01562,529.50406 373.09062,529.52656 C 373.16437,529.55281 373.23313,529.58531 373.29437,529.62906 C 373.35687,529.67531 373.40688,529.72406 373.45062,529.78781 C 373.49437,529.84906 373.51938,529.91406 373.51938,529.99031 L 373.51938,532.32156 C 373.51938,532.37781 373.49687,532.43156 373.46188,532.48531 C 373.42563,532.53656 373.38188,532.59031 373.32938,532.63906 C 373.27688,532.68531 373.22187,532.72656 373.16687,532.75406 C 373.11063,532.78531 373.05813,532.80031 373.00688,532.80031 L 369.88312,532.80031 C 369.71312,532.80031 369.56688,532.73156 369.44562,532.59781 C 369.32188,532.46156 369.26062,532.31406 369.26062,532.15781 M 368.00938,527.54656 L 368.05187,527.54656 L 368.20312,527.54656 L 368.25562,527.54656 C 368.34813,527.54656 368.44188,527.56156 368.53188,527.59281 C 368.62688,527.62406 368.70812,527.66906 368.78313,527.72531 C 368.85687,527.78281 368.92063,527.85406 368.96688,527.93906 C 369.01438,528.02281 369.03937,528.12031 369.03937,528.23031 L 369.03937,533.08656 L 380.96062,533.08656 L 380.96062,530.20531 C 380.96062,530.10281 380.98437,530.01031 381.03313,529.91906 C 381.08062,529.83156 381.14062,529.75406 381.21562,529.69031 C 381.28937,529.62656 381.37563,529.57531 381.47187,529.54406 C 381.56438,529.50656 381.66063,529.49281 381.75562,529.49281 C 381.83688,529.49281 381.91937,529.50656 382.01062,529.53656 C 382.09813,529.56781 382.17813,529.60906 382.24937,529.66031 C 382.31938,529.71156 382.37938,529.77281 382.42937,529.85406 C 382.47563,529.92906 382.49937,530.01531 382.49937,530.10281 L 382.49937,537.17781 L 381.01188,537.17781 L 381.01188,534.95906 L 369.07688,534.95906 L 369.07688,537.17781 L 367.50063,537.17781 L 367.50063,528.13781 C 367.50063,527.99281 367.55937,527.87406 367.67437,527.76906 C 367.79063,527.66906 367.90062,527.59281 368.00938,527.54656" />
  </g>
</svg>
