<?xml version="1.0" encoding="UTF-8" standalone="no"?>
<!-- Created with Inkscape (http://www.inkscape.org/) -->

<svg
   xmlns:dc="http://purl.org/dc/elements/1.1/"
   xmlns:cc="http://creativecommons.org/ns#"
   xmlns:rdf="http://www.w3.org/1999/02/22-rdf-syntax-ns#"
   xmlns:svg="http://www.w3.org/2000/svg"
   xmlns="http://www.w3.org/2000/svg"
   xmlns:sodipodi="http://sodipodi.sourceforge.net/DTD/sodipodi-0.dtd"
   xmlns:inkscape="http://www.inkscape.org/namespaces/inkscape"
   width="72.923752"
   height="27.008751"
   id="svg18131"
   version="1.1"
   inkscape:version="0.48.4 r9939"
   sodipodi:docname="bus-B.svg">
  <defs
     id="defs18133">
    <clipPath
       clipPathUnits="userSpaceOnUse"
       id="clipPath14770">
      <path
         inkscape:connector-curvature="0"
         d="M 0,532.913 L 722.835,532.913 L 722.835,0 L 0,0 L 0,532.913 z"
         id="path14772" />
    </clipPath>
  </defs>
  <sodipodi:namedview
     id="base"
     pagecolor="#ffffff"
     bordercolor="#666666"
     borderopacity="1.0"
     inkscape:pageopacity="0.0"
     inkscape:pageshadow="2"
     inkscape:zoom="6.1296903"
     inkscape:cx="67.458547"
     inkscape:cy="13.504376"
     inkscape:document-units="px"
     inkscape:current-layer="layer1"
     showgrid="false"
     fit-margin-top="0"
     fit-margin-left="0"
     fit-margin-right="0"
     fit-margin-bottom="0" />
  <metadata
     id="metadata18136">
    <rdf:RDF>
      <cc:Work
         rdf:about="">
        <dc:format>image/svg+xml</dc:format>
        <dc:type
           rdf:resource="http://purl.org/dc/dcmitype/StillImage" />
        <dc:title></dc:title>
      </cc:Work>
    </rdf:RDF>
  </metadata>
  <g
     inkscape:label="Livello 1"
     inkscape:groupmode="layer"
     id="layer1"
     transform="translate(-338.53812,-518.85781)">
    <g
       transform="matrix(1.25,0,0,-1.25,168.17987,768.36706)"
       id="g14766">
      <g
         id="g14768"
         clip-path="url(#clipPath14770)">
        <g
           id="g14774"
           transform="translate(189.9116,190.5684)">
          <path
             inkscape:connector-curvature="0"
             d="M 0,0 L 0.931,0 L 1.139,0.262 L -0.42,3.082 C -1.007,4.307 -1.469,4.814 -1.977,4.814 L -2.563,4.814 C -2.353,4.307 -2.224,4.096 -2.02,3.719 C -1.639,2.875 -0.794,1.396 -0.29,0.471 L 0,0 z M -5.593,4.814 L -5.593,0 L -0.588,0 L -0.716,0.299 C -0.838,0.553 -1.049,0.893 -1.301,1.355 C -2.02,2.791 -2.476,3.678 -2.813,4.227 C -2.943,4.436 -3.021,4.518 -3.237,4.814 L -5.593,4.814 z M -1.007,-7.885 C -1.007,-6.408 -2.269,-5.184 -3.739,-5.184 C -5.212,-5.184 -6.433,-6.408 -6.433,-7.885 C -6.433,-9.367 -5.212,-10.586 -3.739,-10.586 C -2.269,-10.586 -1.007,-9.367 -1.007,-7.885 M -11.73,0 L -6.055,0 L -6.055,4.814 L -11.73,4.814 L -11.73,0 z M -20.107,0 L -12.617,0 L -12.617,4.814 L -20.107,4.814 L -20.107,0 z M -28.638,0 L -20.566,0 L -20.566,4.814 L -28.638,4.814 L -28.638,0 z M -37.26,0 L -29.229,0 L -29.229,4.814 L -37.26,4.814 L -37.26,0 z M -36.921,-7.885 C -36.921,-6.408 -38.185,-5.184 -39.661,-5.184 C -41.132,-5.184 -42.352,-6.408 -42.352,-7.885 C -42.352,-9.367 -41.132,-10.586 -39.661,-10.586 C -38.185,-10.586 -36.921,-9.367 -36.921,-7.885 M -43.995,8.273 L -43.995,7.346 L -6.854,7.346 L -6.854,8.273 L -7.102,8.486 L -43.864,8.486 L -43.995,8.273 z M -45.635,4.814 C -46.854,4.814 -47.901,3.59 -47.901,2.117 L -47.901,0 L -37.848,0 L -37.848,4.814 L -45.635,4.814 z M -44.453,8.15 L -44.371,8.869 L -44.283,8.908 C -44.245,8.953 -44.203,8.953 -44.203,8.99 L -44.117,9.039 L -7.446,9.039 L -6.6,8.869 L -6.389,8.568 L -6.389,7.346 L -3.237,7.346 C -1.469,7.346 0.17,6.715 0.715,5.662 L 4.337,-1.264 C 4.502,-1.602 4.631,-2.23 4.714,-3.078 C 4.714,-3.369 4.714,-3.666 4.668,-4.004 L 4.587,-4.934 C 4.587,-5.648 4.249,-9.068 4.249,-9.068 L 0.845,-9.068 C 0.17,-11.43 -1.593,-12.568 -3.825,-12.568 C -5.09,-12.568 -7.651,-11.688 -8.282,-9.068 L -35.077,-9.068 C -35.077,-10.205 -36.881,-12.484 -39.533,-12.484 C -42.306,-12.484 -44.117,-10.461 -44.117,-9.068 L -53.121,-9.068 C -53.285,-9.068 -53.373,-8.389 -53.538,-8.389 C -53.579,-8.389 -53.625,-8.389 -53.625,-8.35 L -50.847,1.27 C -49.753,5.072 -47.107,7.346 -44.708,7.346 L -44.453,7.346 L -44.453,8.15 z"
             style="fill:#ffffff;fill-opacity:1;fill-rule:nonzero;stroke:none"
             id="path14776" />
        </g>
      </g>
    </g>
  </g>
</svg>
