<?xml version="1.0" encoding="UTF-8" standalone="no"?>
<!-- Created with Inkscape (http://www.inkscape.org/) -->

<svg
   xmlns:dc="http://purl.org/dc/elements/1.1/"
   xmlns:cc="http://creativecommons.org/ns#"
   xmlns:rdf="http://www.w3.org/1999/02/22-rdf-syntax-ns#"
   xmlns:svg="http://www.w3.org/2000/svg"
   xmlns="http://www.w3.org/2000/svg"
   xmlns:sodipodi="http://sodipodi.sourceforge.net/DTD/sodipodi-0.dtd"
   xmlns:inkscape="http://www.inkscape.org/namespaces/inkscape"
   width="10.475"
   height="8.6374998"
   id="svg19585"
   version="1.1"
   inkscape:version="0.48.4 r9939"
   sodipodi:docname="Nuovo documento 13">
  <defs
     id="defs19587" />
  <sodipodi:namedview
     id="base"
     pagecolor="#ffffff"
     bordercolor="#666666"
     borderopacity="1.0"
     inkscape:pageopacity="0.0"
     inkscape:pageshadow="2"
     inkscape:zoom="27.322721"
     inkscape:cx="5.2375"
     inkscape:cy="4.31875"
     inkscape:document-units="px"
     inkscape:current-layer="layer1"
     showgrid="false"
     fit-margin-top="0"
     fit-margin-left="0"
     fit-margin-right="0"
     fit-margin-bottom="0" />
  <metadata
     id="metadata19590">
    <rdf:RDF>
      <cc:Work
         rdf:about="">
        <dc:format>image/svg+xml</dc:format>
        <dc:type
           rdf:resource="http://purl.org/dc/dcmitype/StillImage" />
        <dc:title></dc:title>
      </cc:Work>
    </rdf:RDF>
  </metadata>
  <g
     inkscape:label="Livello 1"
     inkscape:groupmode="layer"
     id="layer1"
     transform="translate(-369.7625,-528.04343)">
    <g
       id="g1760"
       transform="matrix(1.25,0,0,-1.25,378.60625,533.26593)">
      <path
         d="M 0,0 C 0.16,0 0.297,0.055 0.415,0.164 C 0.531,0.275 0.59,0.41 0.59,0.57 C 0.59,0.734 0.534,0.879 0.421,1.002 C 0.309,1.127 0.167,1.187 0,1.187 C -0.157,1.187 -0.295,1.129 -0.413,1.008 C -0.529,0.887 -0.588,0.75 -0.588,0.6 C -0.588,0.441 -0.529,0.303 -0.413,0.182 C -0.295,0.061 -0.157,0 0,0 M -0.165,1.861 L -0.165,1.902 C -0.247,2.115 -0.316,2.297 -0.369,2.445 C -0.426,2.594 -0.484,2.748 -0.546,2.906 C -0.607,3.064 -0.66,3.195 -0.701,3.301 C -0.715,3.355 -0.755,3.41 -0.82,3.465 C -0.887,3.52 -0.949,3.547 -1.012,3.547 L -4.746,3.547 C -4.815,3.547 -4.883,3.52 -4.947,3.465 C -5.014,3.41 -5.053,3.355 -5.066,3.301 C -5.108,3.195 -5.16,3.064 -5.223,2.906 C -5.283,2.748 -5.345,2.594 -5.403,2.445 C -5.461,2.297 -5.532,2.115 -5.616,1.902 L -5.616,1.861 L -0.165,1.861 z M -6.361,0.57 C -6.361,0.41 -6.297,0.275 -6.175,0.164 C -6.051,0.055 -5.916,0 -5.771,0 C -5.611,0 -5.473,0.061 -5.356,0.182 C -5.24,0.303 -5.181,0.441 -5.181,0.6 C -5.181,0.75 -5.24,0.887 -5.356,1.008 C -5.473,1.129 -5.611,1.187 -5.771,1.187 C -5.936,1.187 -6.075,1.127 -6.188,1.002 C -6.303,0.879 -6.361,0.734 -6.361,0.57 M -0.805,4.178 C -0.737,4.178 -0.666,4.158 -0.594,4.117 C -0.521,4.076 -0.454,4.025 -0.391,3.967 C -0.328,3.906 -0.274,3.844 -0.227,3.775 C -0.178,3.707 -0.144,3.641 -0.121,3.58 L 0.561,1.861 C 0.561,1.842 0.57,1.83 0.59,1.83 C 0.66,1.787 0.735,1.746 0.818,1.701 C 0.902,1.654 0.979,1.602 1.052,1.539 C 1.124,1.479 1.184,1.41 1.233,1.332 C 1.28,1.258 1.305,1.172 1.305,1.074 L 1.305,-1.346 L 0.695,-1.346 L 0.643,-1.396 L 0.643,-2.287 C 0.643,-2.295 0.623,-2.328 0.586,-2.396 C 0.547,-2.461 0.512,-2.512 0.477,-2.545 C 0.436,-2.607 0.371,-2.652 0.281,-2.68 C 0.191,-2.707 0.108,-2.723 0.032,-2.723 C -0.022,-2.723 -0.087,-2.711 -0.159,-2.686 C -0.231,-2.66 -0.3,-2.629 -0.365,-2.588 C -0.432,-2.545 -0.488,-2.496 -0.535,-2.438 C -0.584,-2.379 -0.607,-2.316 -0.607,-2.244 L -0.607,-1.365 L -5.16,-1.365 L -5.16,-2.244 C -5.16,-2.316 -5.184,-2.379 -5.227,-2.438 C -5.271,-2.496 -5.326,-2.549 -5.388,-2.592 C -5.45,-2.639 -5.518,-2.672 -5.588,-2.695 C -5.662,-2.721 -5.726,-2.732 -5.781,-2.732 C -5.864,-2.732 -5.949,-2.717 -6.039,-2.686 C -6.129,-2.654 -6.201,-2.607 -6.256,-2.545 C -6.284,-2.512 -6.318,-2.463 -6.361,-2.402 C -6.402,-2.338 -6.422,-2.301 -6.422,-2.287 L -6.422,-1.396 L -6.475,-1.346 L -7.075,-1.346 L -7.075,1.074 C -7.075,1.172 -7.05,1.258 -7.002,1.332 C -6.953,1.41 -6.896,1.479 -6.827,1.539 C -6.756,1.602 -6.68,1.654 -6.599,1.701 C -6.514,1.746 -6.436,1.787 -6.361,1.83 L -6.328,1.861 C -6.307,1.922 -6.266,2.031 -6.204,2.186 C -6.144,2.342 -6.078,2.504 -6.008,2.674 C -5.939,2.842 -5.875,3.004 -5.811,3.154 C -5.75,3.305 -5.709,3.412 -5.687,3.475 C -5.66,3.537 -5.624,3.611 -5.578,3.693 C -5.534,3.775 -5.48,3.854 -5.419,3.926 C -5.356,3.998 -5.287,4.057 -5.212,4.105 C -5.137,4.154 -5.053,4.178 -4.963,4.178 L -0.805,4.178 z"
         style="fill:#231f20;fill-opacity:1;fill-rule:nonzero;stroke:none"
         id="path1762"
         inkscape:connector-curvature="0" />
    </g>
  </g>
</svg>
