<?xml version="1.0" encoding="UTF-8" standalone="no"?>
<!-- Created with Inkscape (http://www.inkscape.org/) -->

<svg
   xmlns:dc="http://purl.org/dc/elements/1.1/"
   xmlns:cc="http://creativecommons.org/ns#"
   xmlns:rdf="http://www.w3.org/1999/02/22-rdf-syntax-ns#"
   xmlns:svg="http://www.w3.org/2000/svg"
   xmlns="http://www.w3.org/2000/svg"
   xmlns:sodipodi="http://sodipodi.sourceforge.net/DTD/sodipodi-0.dtd"
   xmlns:inkscape="http://www.inkscape.org/namespaces/inkscape"
   width="10.475"
   height="8.6374998"
   id="svg19585"
   version="1.1"
   inkscape:version="0.48.4 r9939"
   sodipodi:docname="car-B.svg">
  <defs
     id="defs19587" />
  <sodipodi:namedview
     id="base"
     pagecolor="#ffffff"
     bordercolor="#666666"
     borderopacity="1.0"
     inkscape:pageopacity="0.0"
     inkscape:pageshadow="2"
     inkscape:zoom="27.322721"
     inkscape:cx="5.2375"
     inkscape:cy="4.31875"
     inkscape:document-units="px"
     inkscape:current-layer="layer1"
     showgrid="false"
     fit-margin-top="0"
     fit-margin-left="0"
     fit-margin-right="0"
     fit-margin-bottom="0" />
  <metadata
     id="metadata19590">
    <rdf:RDF>
      <cc:Work
         rdf:about="">
        <dc:format>image/svg+xml</dc:format>
        <dc:type
           rdf:resource="http://purl.org/dc/dcmitype/StillImage" />
        <dc:title></dc:title>
      </cc:Work>
    </rdf:RDF>
  </metadata>
  <g
     inkscape:label="Livello 1"
     inkscape:groupmode="layer"
     id="layer1"
     transform="translate(-369.7625,-528.04343)">
    <path
       inkscape:connector-curvature="0"
       id="path1762"
       style="fill:#ffffff;fill-opacity:1;fill-rule:nonzero;stroke:none"
       d="M 378.60625,533.26593 C 378.80625,533.26593 378.9775,533.19718 379.125,533.06093 C 379.27,532.92218 379.34375,532.75343 379.34375,532.55343 C 379.34375,532.34843 379.27375,532.16718 379.1325,532.01343 C 378.9925,531.85718 378.815,531.78218 378.60625,531.78218 C 378.41,531.78218 378.2375,531.85468 378.09,532.00593 C 377.945,532.15718 377.87125,532.32843 377.87125,532.51593 C 377.87125,532.71468 377.945,532.88718 378.09,533.03843 C 378.2375,533.18968 378.41,533.26593 378.60625,533.26593 M 378.4,530.93968 L 378.4,530.88843 C 378.2975,530.62218 378.21125,530.39468 378.145,530.20968 C 378.07375,530.02343 378.00125,529.83093 377.92375,529.63343 C 377.8475,529.43593 377.78125,529.27218 377.73,529.13968 C 377.7125,529.07218 377.6625,529.00343 377.58125,528.93468 C 377.4975,528.86593 377.42,528.83218 377.34125,528.83218 L 372.67375,528.83218 C 372.5875,528.83218 372.5025,528.86593 372.4225,528.93468 C 372.33875,529.00343 372.29,529.07218 372.27375,529.13968 C 372.22125,529.27218 372.15625,529.43593 372.0775,529.63343 C 372.0025,529.83093 371.925,530.02343 371.8525,530.20968 C 371.78,530.39468 371.69125,530.62218 371.58625,530.88843 L 371.58625,530.93968 L 378.4,530.93968 z M 370.655,532.55343 C 370.655,532.75343 370.735,532.92218 370.8875,533.06093 C 371.0425,533.19718 371.21125,533.26593 371.3925,533.26593 C 371.5925,533.26593 371.765,533.18968 371.91125,533.03843 C 372.05625,532.88718 372.13,532.71468 372.13,532.51593 C 372.13,532.32843 372.05625,532.15718 371.91125,532.00593 C 371.765,531.85468 371.5925,531.78218 371.3925,531.78218 C 371.18625,531.78218 371.0125,531.85718 370.87125,532.01343 C 370.7275,532.16718 370.655,532.34843 370.655,532.55343 M 377.6,528.04343 C 377.685,528.04343 377.77375,528.06843 377.86375,528.11968 C 377.955,528.17093 378.03875,528.23468 378.1175,528.30718 C 378.19625,528.38343 378.26375,528.46093 378.3225,528.54718 C 378.38375,528.63218 378.42625,528.71468 378.455,528.79093 L 379.3075,530.93968 C 379.3075,530.96343 379.31875,530.97843 379.34375,530.97843 C 379.43125,531.03218 379.525,531.08343 379.62875,531.13968 C 379.73375,531.19843 379.83,531.26343 379.92125,531.34218 C 380.01125,531.41718 380.08625,531.50343 380.1475,531.60093 C 380.20625,531.69343 380.2375,531.80093 380.2375,531.92343 L 380.2375,534.94843 L 379.475,534.94843 L 379.41,535.01093 L 379.41,536.12468 C 379.41,536.13468 379.385,536.17593 379.33875,536.26093 C 379.29,536.34218 379.24625,536.40593 379.2025,536.44718 C 379.15125,536.52468 379.07,536.58093 378.9575,536.61593 C 378.845,536.64968 378.74125,536.66968 378.64625,536.66968 C 378.57875,536.66968 378.4975,536.65468 378.4075,536.62343 C 378.3175,536.59093 378.23125,536.55218 378.15,536.50093 C 378.06625,536.44718 377.99625,536.38593 377.9375,536.31343 C 377.87625,536.23968 377.8475,536.16093 377.8475,536.07093 L 377.8475,534.97218 L 372.15625,534.97218 L 372.15625,536.07093 C 372.15625,536.16093 372.12625,536.23968 372.0725,536.31343 C 372.0175,536.38593 371.94875,536.45218 371.87125,536.50593 C 371.79375,536.56468 371.70875,536.60593 371.62125,536.63468 C 371.52875,536.66718 371.44875,536.68093 371.38,536.68093 C 371.27625,536.68093 371.17,536.66218 371.0575,536.62343 C 370.945,536.58343 370.855,536.52468 370.78625,536.44718 C 370.75125,536.40593 370.70875,536.34468 370.655,536.26843 C 370.60375,536.18843 370.57875,536.14218 370.57875,536.12468 L 370.57875,535.01093 L 370.5125,534.94843 L 369.7625,534.94843 L 369.7625,531.92343 C 369.7625,531.80093 369.79375,531.69343 369.85375,531.60093 C 369.915,531.50343 369.98625,531.41718 370.0725,531.34218 C 370.16125,531.26343 370.25625,531.19843 370.3575,531.13968 C 370.46375,531.08343 370.56125,531.03218 370.655,530.97843 L 370.69625,530.93968 C 370.7225,530.86343 370.77375,530.72718 370.85125,530.53343 C 370.92625,530.33843 371.00875,530.13593 371.09625,529.92343 C 371.1825,529.71343 371.2625,529.51093 371.3425,529.32343 C 371.41875,529.13468 371.47,529.00093 371.4975,528.92218 C 371.53125,528.84468 371.57625,528.75218 371.63375,528.64968 C 371.68875,528.54718 371.75625,528.44843 371.8325,528.35843 C 371.91125,528.26843 371.9975,528.19468 372.09125,528.13468 C 372.185,528.07343 372.29,528.04343 372.4025,528.04343 L 377.6,528.04343 z" />
  </g>
</svg>
