<?xml version="1.0" encoding="UTF-8" standalone="no"?>
<!-- Created with Inkscape (http://www.inkscape.org/) -->

<svg
   xmlns:dc="http://purl.org/dc/elements/1.1/"
   xmlns:cc="http://creativecommons.org/ns#"
   xmlns:rdf="http://www.w3.org/1999/02/22-rdf-syntax-ns#"
   xmlns:svg="http://www.w3.org/2000/svg"
   xmlns="http://www.w3.org/2000/svg"
   xmlns:sodipodi="http://sodipodi.sourceforge.net/DTD/sodipodi-0.dtd"
   xmlns:inkscape="http://www.inkscape.org/namespaces/inkscape"
   width="12.93624"
   height="12.31125"
   id="svg20770"
   version="1.1"
   inkscape:version="0.48.4 r9939"
   sodipodi:docname="eat-B.svg">
  <defs
     id="defs20772" />
  <sodipodi:namedview
     id="base"
     pagecolor="#ffffff"
     bordercolor="#666666"
     borderopacity="1.0"
     inkscape:pageopacity="0.0"
     inkscape:pageshadow="2"
     inkscape:zoom="19.169459"
     inkscape:cx="6.46812"
     inkscape:cy="6.155625"
     inkscape:document-units="px"
     inkscape:current-layer="layer1"
     showgrid="false"
     fit-margin-top="0"
     fit-margin-left="0"
     fit-margin-right="0"
     fit-margin-bottom="0" />
  <metadata
     id="metadata20775">
    <rdf:RDF>
      <cc:Work
         rdf:about="">
        <dc:format>image/svg+xml</dc:format>
        <dc:type
           rdf:resource="http://purl.org/dc/dcmitype/StillImage" />
        <dc:title></dc:title>
      </cc:Work>
    </rdf:RDF>
  </metadata>
  <g
     inkscape:label="Livello 1"
     inkscape:groupmode="layer"
     id="layer1"
     transform="translate(-368.53188,-526.20656)">
    <path
       inkscape:connector-curvature="0"
       id="path1728"
       style="fill:#ffffff;fill-opacity:1;fill-rule:nonzero;stroke:none"
       d="M 375.66437,532.12656 L 371.15062,527.59781 C 370.63062,527.07781 370.34438,526.92656 370.19312,526.92656 C 369.87688,526.92656 369.55437,527.26281 369.55437,527.54906 C 369.55437,527.95156 370.36187,529.24031 371.23313,530.04656 L 374.60437,533.21781 C 374.95812,533.55531 375.22687,533.67156 375.46062,533.67156 C 375.84813,533.67156 376.14938,533.30031 376.14938,532.91781 C 376.14938,532.62906 376.03062,532.49781 375.66437,532.12656 M 371.77312,527.36531 L 375.46062,531.00406 C 376.18187,530.33406 375.59563,529.44406 376.87187,528.28406 L 378.80063,526.52406 C 378.96812,526.37156 379.11937,526.28906 379.22063,526.28906 C 379.33688,526.28906 379.43813,526.38906 379.43813,526.55781 C 379.43813,526.69156 379.35313,526.84281 379.23687,526.94531 L 377.39188,528.67156 C 377.13938,528.90656 377.05563,528.99156 377.05563,529.22656 C 377.05563,529.46031 377.13938,529.66281 377.35813,529.66281 C 377.50812,529.66281 377.77562,529.50906 378.06313,529.22656 L 379.85687,527.51281 C 380.05687,527.31406 380.14188,527.24656 380.29313,527.24656 C 380.46188,527.24656 380.58062,527.34906 380.58062,527.49781 C 380.58062,527.64906 380.51062,527.78031 380.34312,527.93406 L 378.39938,529.71156 C 378.11187,529.98031 377.99313,530.11531 377.99313,530.21531 C 377.99313,530.41531 378.29563,530.65156 378.43187,530.65156 C 378.56562,530.65156 378.63188,530.58656 378.88562,530.36656 L 380.67937,528.75531 C 380.99813,528.45281 381.08312,528.37156 381.21438,528.37156 C 381.36813,528.37156 381.46812,528.47156 381.46812,528.62031 C 381.46812,528.75531 381.36813,528.92281 381.04813,529.22656 L 379.28687,530.87156 C 377.99313,532.07781 377.29063,531.35531 376.58562,532.07781 L 380.92937,536.52406 C 381.33312,536.92656 381.46812,537.07781 381.46812,537.44656 C 381.46812,537.99781 380.92937,538.51781 380.32562,538.51781 C 379.48813,538.51781 378.59937,537.90031 377.57562,536.70906 C 377.39188,536.50656 377.39188,536.48906 376.55313,535.34906 C 376.08188,534.71156 376.01312,534.62656 375.17687,534.49281 L 374.43813,533.98906 C 373.34813,535.18031 372.79313,535.80031 372.20688,536.48906 C 371.41937,537.41281 370.49313,538.50406 369.60687,538.50406 C 368.98563,538.50406 368.53188,537.88281 368.53188,537.32906 C 368.53188,536.62406 369.05437,535.98656 370.52938,534.81156 C 371.56938,533.97281 371.67063,534.04031 373.19688,532.86406 C 370.04187,529.94906 368.88438,528.57156 368.88438,527.56406 C 368.88438,526.86031 369.37063,526.20656 370.10813,526.20656 C 370.52938,526.20656 370.68063,526.28906 371.77312,527.36531" />
  </g>
</svg>
