<?xml version="1.0" encoding="UTF-8" standalone="no"?>
<svg id="svg2" xmlns:rdf="http://www.w3.org/1999/02/22-rdf-syntax-ns#" xmlns="http://www.w3.org/2000/svg" xml:space="preserve" viewBox="0 0 450 300" version="1.0" xmlns:cc="http://creativecommons.org/ns#" xmlns:dc="http://purl.org/dc/elements/1.1/"><metadata id="metadata16"><rdf:RDF><cc:Work rdf:about=""><dc:format>image/svg+xml</dc:format><dc:type rdf:resource="http://purl.org/dc/dcmitype/StillImage"/></cc:Work></rdf:RDF></metadata><rect id="rect21" height="189.62" width="450" y="65.678" x="0" fill="#0b4ea2"/><rect id="rect27" height="100" width="450" y="0" x="0" fill="#fff"/><rect id="rect33" height="100" width="450" y="200" x="0" fill="#ee1c25"/><path id="path43" fill="#fff" d="m87.457 146.27c0.055-23.06 0.565-46.15 2.625-69.134h118.13c2.11 24.784 2.86 49.694 2.46 74.554-0.97 22.9-13.05 44.34-30.7 58.62-9.3 7.8-19.86 13.95-30.83 19.1-23.62-10.83-46.24-28-56.062-52.87-3.849-9.59-5.638-19.95-5.621-30.27z"/><path id="use50" fill="#ee1c25" d="m149.15 223.59c-22.64-10.67-44.19-27.87-52.422-52.32-5.964-16.69-3.636-34.64-3.737-51.98 0.314-12.32 0.716-24.641 1.808-36.915h108.69c1.81 23.255 2.37 46.625 1.89 69.935-1.21 22.41-13.9 43.05-31.67 56.33-7.58 5.9-15.92 10.79-24.56 14.95z"/><path id="path57" fill="#fff" d="m154.11 134.76c9.9 0.21 20.01-0.18 29.49-3.31-1.17 4.99 1.04 13.78-0.95 16.62-9.23-2.77-18.96-3.13-28.54-3.02v24.26h-9.93v-24.26c-9.9-0.1-19.99 0.26-29.48 3.33 1.23-4.94-1.16-13.98 1.02-16.6 9.2 2.83 18.91 3.18 28.46 2.98v-15.24c-7.89-0.12-15.84 0.82-23.33 3.35 1.11-5.03-0.94-13.59 0.87-16.64 7.23 2.32 14.86 3.18 22.43 3.06-0.28-7.35-1.55-14.629-3.1-21.808 5.07 1.019 12.14-0.321 16.07 0.542-1.48 7.004-2.7 14.096-2.98 21.266 7.88 0.12 15.82-0.82 23.3-3.35-1.11 5.03 0.94 13.6-0.87 16.65-7.23-2.33-14.88-3.18-22.46-3.07v15.24z"/><path id="use50-9" fill="#0b4ea2" d="m148.65 166.74c-8.2 0.37-14.07 8.47-17.19 15.5-2.3-2.44-8.49-8.32-14.4-6.94-6.15 1.1-10.23 5.69-13.16 11 10.53 16.65 27.56 28.98 45.25 37.31 8.65-4.16 16.98-9.03 24.56-14.93 8.17-6.11 15.26-13.77 20.66-22.44-1.44-2.33-3.15-4.55-4.72-6.41-5.94-7.44-18.61-5.27-22.56 3.1-3.04-6.92-7.91-14.4-15.81-16.04-0.9-0.13-1.78-0.19-2.63-0.15z"/></svg>
