<?xml version="1.0" encoding="UTF-8" standalone="no"?>
<svg xmlns="http://www.w3.org/2000/svg" version="1.1" id="svg2" zoomAndPan="magnify" preserveAspectRatio="xMidYMid meet" viewBox="0 0 240 160" height="600" width="900">
  <rect style="fill:#dc171c" y="0" x="0" height="160" width="240" id="red" />
  <rect style="fill:#47aecf" y="0" height="160" width="80" x="80" id="blue" />
  <path id="path4305" d="m 30,119 l 10,6 l 10,-6 z" style="fill:#fbea0f" />
  <path id="path4303" d="m 30,113 l 0,4 l 20,0 l 0,-4 z" style="fill:#fbea0f" />
  <path id="path4301" d="m 30,85 l 0,4 l 20,0 l 0,-4 z" style="fill:#fbea0f" />
  <path id="path4299" d="m 30,77 l 10,6 l 10,-6 z" style="fill:#fbea0f" />
  <path id="path4297" d="m 52,77 l 10,0 l 0,48 l -10,0 z" style="fill:#fbea0f" />
  <path id="path4295" d="m 18,77 l 10,0 l 0,48 l -10,0 z" style="fill:#fbea0f" />
  <path id="path4293" d="M 40,91 A 10,10 0 0 0 30,101 a 10,10 0 0 0 10,10 A 10,10 0 0 0 50,101 A 10,10 0 0 0 40,91 Z" style="fill:#fbea0f" />
  <path id="path4289" d="m 40,104.3 a 2,2 0 0 1 2,2 A 2,2 0 0 1 40,108.3 a 2,2 0 0 1 -2,-2 a 2,2 0 0 1 2,-2 z" style="fill:#dc171c" />
  <path id="path4287" d="m 48,61 a 8,8 0 0 1 -8,8 a 8,8 0 0 1 -8,-8 a 8,8 0 0 1 8,-8 a 8,8 0 0 1 8,8 z" style="fill:#fbea0f" />
  <path id="path4285" d="m 35,46 a 5,5 0 0 0 10,0 c 0,-2 -1.25,-2.25 -1.25,-3 c 0,-0.75 0.75,-1.75 -0.75,-3 c 0.75,1.25 -0.5,1.5 -0.5,2.75 C 42.5,44 43,44 43,45 a 1,1 0 0 1 -2,0 c 0,-1 1,-2 1,-3.5 c 0,-1.5 -0.25,-2 -1,-3.25 C 40.25,37 39,36 40,35 c -1.5,0.5 -0.75,2.5 -0.75,3.75 c 0,1.25 -1,2 -1,3.5 C 38.25,43.75 39,44 39,45 a 1,1 0 0 1 -2,0 c 0,-1 0.5,-1 0.5,-2.25 C 37.5,41.5 36.25,41.25 37,40 c -1.5,1.25 -0.75,2.25 -0.75,3 c 0,0.75 -1.25,1 -1.25,3" style="fill:#fbea0f" />
  <path id="cornered_stuff" d="M 29.010939,63.784377 A 11,11 0 0 0 29,64 a 11,11 0 0 0 11,11 a 11,11 0 0 0 11,-11 a 11,11 0 0 0 -0.0073,-0.203126 A 12,12 0 0 1 40,71 A 12,12 0 0 1 29.010939,63.784377 Z" style="fill:#fbea0f" />
  <path d="m 40,90.5 a 5.25,5.25 0 0 1 0,10.5 a 5.25,5.25 0 1 0 0,10.5" id="yinyang_center" style="fill:none;stroke:#dc171c" />
  <path id="path4291" d="m 40,93.7 a 2,2 0 0 1 2,2 a 2,2 0 0 1 -2,2 a 2,2 0 0 1 -2,-2 a 2,2 0 0 1 2,-2 z" style="fill:#dc171c" />
</svg>
