<?xml version="1.0" encoding="UTF-8" standalone="no"?>
<svg id="svg2" xmlns:rdf="http://www.w3.org/1999/02/22-rdf-syntax-ns#" xmlns="http://www.w3.org/2000/svg" viewBox="0 0 975 650" version="1.1" xmlns:cc="http://creativecommons.org/ns#" xmlns:dc="http://purl.org/dc/elements/1.1/">
<metadata id="metadata73">
<rdf:RDF>
<cc:Work rdf:about="">
<dc:format>image/svg+xml</dc:format>
<dc:type rdf:resource="http://purl.org/dc/dcmitype/StillImage"/>
</cc:Work>
</rdf:RDF>
</metadata>
<rect id="rect51" height="650" width="975" y="0" x="0" fill="#fff"/>
<rect id="use53" height="50" width="975" y="0" x="0" fill="#bb133e"/>
<rect id="use55" height="50" width="975" y="100" x="0" fill="#bb133e"/>
<rect id="use57" height="50" width="975" y="200" x="0" fill="#bb133e"/>
<rect id="use59" height="50" width="975" y="300" x="0" fill="#bb133e"/>
<rect id="use61" height="50" width="975" y="400" x="0" fill="#bb133e"/>
<rect id="use63" height="50" width="975" y="500" x="0" fill="#bb133e"/>
<rect id="use65" height="50" width="975" y="600" x="0" fill="#bb133e"/>
<rect id="rect67" height="350" width="494" y="0" x="0" fill="#002664"/>
<path id="use3119" fill="#fff" d="m42.25 14.594l-4.5 13.812h-14.531l11.75 8.563-4.5 13.812 11.781-8.531 11.781 8.531-4.5-13.812 11.75-8.563h-14.531l-4.5-13.812z"/>
<path id="use3119-8" fill="#fff" d="m451.75 14.595l-4.5 13.812h-14.53l11.75 8.563-4.5 13.812 11.78-8.531 11.78 8.531-4.5-13.812 11.75-8.563h-14.53l-4.5-13.812z"/>
<path id="use3119-7" fill="#fff" d="m369.85 14.595l-4.5 13.812h-14.53l11.75 8.563-4.5 13.812 11.78-8.531 11.78 8.531-4.5-13.812 11.75-8.563h-14.53l-4.5-13.812z"/>
<path id="use3119-1" fill="#fff" d="m287.95 14.595l-4.5 13.812h-14.53l11.75 8.563-4.5 13.812 11.78-8.531 11.78 8.531-4.5-13.812 11.75-8.563h-14.53l-4.5-13.812z"/>
<path id="use3119-5" fill="#fff" d="m206.05 14.595l-4.5 13.812h-14.53l11.75 8.563-4.5 13.812 11.78-8.531 11.78 8.531-4.5-13.812 11.75-8.563h-14.53l-4.5-13.812z"/>
<path id="use3119-75" fill="#fff" d="m124.15 14.595l-4.5 13.812h-14.53l11.75 8.563-4.5 13.812 11.78-8.531 11.78 8.531-4.5-13.812 11.75-8.563h-14.53l-4.5-13.812z"/>
<path id="use3119-88" fill="#fff" d="m369.85 84.795l-4.5 13.812h-14.53l11.75 8.563-4.5 13.81 11.78-8.53 11.78 8.53-4.5-13.81 11.75-8.563h-14.53l-4.5-13.812z"/>
<path id="use3119-89" fill="#fff" d="m328.9 119.89l-4.5 13.82h-14.53l11.75 8.56-4.5 13.81 11.78-8.53 11.78 8.53-4.5-13.81 11.75-8.56h-14.53l-4.5-13.82z"/>
<path id="use3119-3" fill="#fff" d="m451.75 154.99l-4.5 13.82h-14.53l11.75 8.56-4.5 13.81 11.78-8.53 11.78 8.53-4.5-13.81 11.75-8.56h-14.53l-4.5-13.82z"/>
<path id="use3119-0" fill="#fff" d="m369.85 154.99l-4.5 13.82h-14.53l11.75 8.56-4.5 13.81 11.78-8.53 11.78 8.53-4.5-13.81 11.75-8.56h-14.53l-4.5-13.82z"/>
<path id="use3119-889" fill="#fff" d="m83.2 119.89l-4.5 13.82h-14.531l11.75 8.56-4.5 13.81 11.781-8.53 11.781 8.53-4.5-13.81 11.749-8.56h-14.53l-4.5-13.82z"/>
<path id="use3119-76" fill="#fff" d="m410.8 119.89l-4.5 13.82h-14.53l11.75 8.56-4.5 13.81 11.78-8.53 11.78 8.53-4.5-13.81 11.75-8.56h-14.53l-4.5-13.82z"/>
<path id="use3119-03" fill="#fff" d="m287.95 154.99l-4.5 13.82h-14.53l11.75 8.56-4.5 13.81 11.78-8.53 11.78 8.53-4.5-13.81 11.75-8.56h-14.53l-4.5-13.82z"/>
<path id="use3119-9" fill="#fff" d="m42.25 154.99l-4.5 13.82h-14.531l11.75 8.56-4.5 13.81 11.781-8.53 11.781 8.53-4.5-13.81 11.75-8.56h-14.531l-4.5-13.82z"/>
<path id="use3119-54" fill="#fff" d="m451.75 84.795l-4.5 13.812h-14.53l11.75 8.563-4.5 13.81 11.78-8.53 11.78 8.53-4.5-13.81 11.75-8.563h-14.53l-4.5-13.812z"/>
<path id="use3119-94" fill="#fff" d="m287.95 84.795l-4.5 13.812h-14.53l11.75 8.563-4.5 13.81 11.78-8.53 11.78 8.53-4.5-13.81 11.75-8.563h-14.53l-4.5-13.812z"/>
<path id="use3119-2" fill="#fff" d="m206.05 84.795l-4.5 13.812h-14.53l11.75 8.563-4.5 13.81 11.78-8.53 11.78 8.53-4.5-13.81 11.75-8.563h-14.53l-4.5-13.812z"/>
<path id="use3119-77" fill="#fff" d="m124.15 84.795l-4.5 13.812h-14.53l11.75 8.563-4.5 13.81 11.78-8.53 11.78 8.53-4.5-13.81 11.75-8.563h-14.53l-4.5-13.812z"/>
<path id="use3119-81" fill="#fff" d="m42.25 84.795l-4.5 13.812h-14.531l11.75 8.563-4.5 13.81 11.781-8.53 11.781 8.53-4.5-13.81 11.75-8.563h-14.531l-4.5-13.812z"/>
<path id="use3119-93" fill="#fff" d="m410.8 49.695l-4.5 13.812h-14.53l11.75 8.563-4.5 13.812 11.78-8.531 11.78 8.531-4.5-13.812 11.75-8.563h-14.53l-4.5-13.812z"/>
<path id="use3119-02" fill="#fff" d="m328.9 49.695l-4.5 13.812h-14.53l11.75 8.563-4.5 13.812 11.78-8.531 11.78 8.531-4.5-13.812 11.75-8.563h-14.53l-4.5-13.812z"/>
<path id="use3119-05" fill="#fff" d="m247 49.695l-4.5 13.812h-14.53l11.75 8.563-4.5 13.812 11.78-8.531 11.78 8.531-4.5-13.812 11.75-8.563h-14.53l-4.5-13.812z"/>
<path id="use3119-08" fill="#fff" d="m165.1 49.695l-4.5 13.812h-14.53l11.75 8.563-4.5 13.812 11.78-8.531 11.78 8.531-4.5-13.812 11.75-8.563h-14.53l-4.5-13.812z"/>
<path id="use3119-6" fill="#fff" d="m83.2 49.695l-4.5 13.812h-14.531l11.75 8.563-4.5 13.812 11.781-8.531 11.781 8.531-4.5-13.812 11.749-8.563h-14.53l-4.5-13.812z"/>
<path id="use3119-0-4" fill="#fff" d="m287.95 295.39l-4.5 13.82h-14.53l11.75 8.56-4.5 13.81 11.78-8.53 11.78 8.53-4.5-13.81 11.75-8.56h-14.53l-4.5-13.82z"/>
<path id="use3119-03-9" fill="#fff" d="m451.75 225.19l-4.5 13.82h-14.53l11.75 8.56-4.5 13.81 11.78-8.53 11.78 8.53-4.5-13.81 11.75-8.56h-14.53l-4.5-13.82z"/>
<path id="use3119-9-1" fill="#fff" d="m247 260.29l-4.5 13.82h-14.53l11.75 8.56-4.5 13.81 11.78-8.53 11.78 8.53-4.5-13.81 11.75-8.56h-14.53l-4.5-13.82z"/>
<path id="use3119-75-6" fill="#fff" d="m451.75 295.39l-4.5 13.82h-14.53l11.75 8.56-4.5 13.81 11.78-8.53 11.78 8.53-4.5-13.81 11.75-8.56h-14.53l-4.5-13.82z"/>
<path id="use3119-4-6" fill="#fff" d="m206.05 295.39l-4.5 13.82h-14.53l11.75 8.56-4.5 13.81 11.78-8.53 11.78 8.53-4.5-13.81 11.75-8.56h-14.53l-4.5-13.82z"/>
<path id="use3119-3-9" fill="#fff" d="m206.05 225.19l-4.5 13.82h-14.53l11.75 8.56-4.5 13.81 11.78-8.53 11.78 8.53-4.5-13.81 11.75-8.56h-14.53l-4.5-13.82z"/>
<path id="use3119-0-8" fill="#fff" d="m206.05 154.99l-4.5 13.82h-14.53l11.75 8.56-4.5 13.81 11.78-8.53 11.78 8.53-4.5-13.81 11.75-8.56h-14.53l-4.5-13.82z"/>
<path id="use3119-03-8" fill="#fff" d="m165.1 190.09l-4.5 13.82h-14.53l11.75 8.56-4.5 13.81 11.78-8.53 11.78 8.53-4.5-13.81 11.75-8.56h-14.53l-4.5-13.82z"/>
<path id="use3119-9-2" fill="#fff" d="m165.1 260.29l-4.5 13.82h-14.53l11.75 8.56-4.5 13.81 11.78-8.53 11.78 8.53-4.5-13.81 11.75-8.56h-14.53l-4.5-13.82z"/>
<path id="use3119-8-91" fill="#fff" d="m369.85 295.39l-4.5 13.82h-14.53l11.75 8.56-4.5 13.81 11.78-8.53 11.78 8.53-4.5-13.81 11.75-8.56h-14.53l-4.5-13.82z"/>
<path id="use3119-7-4" fill="#fff" d="m410.8 260.29l-4.5 13.82h-14.53l11.75 8.56-4.5 13.81 11.78-8.53 11.78 8.53-4.5-13.81 11.75-8.56h-14.53l-4.5-13.82z"/>
<path id="use3119-1-9" fill="#fff" d="m124.15 154.99l-4.5 13.82h-14.53l11.75 8.56-4.5 13.81 11.78-8.53 11.78 8.53-4.5-13.81 11.75-8.56h-14.53l-4.5-13.82z"/>
<path id="use3119-5-10" fill="#fff" d="m165.1 119.89l-4.5 13.82h-14.53l11.75 8.56-4.5 13.81 11.78-8.53 11.78 8.53-4.5-13.81 11.75-8.56h-14.53l-4.5-13.82z"/>
<path id="use3119-75-7" fill="#fff" d="m247 119.89l-4.5 13.82h-14.53l11.75 8.56-4.5 13.81 11.78-8.53 11.78 8.53-4.5-13.81 11.75-8.56h-14.53l-4.5-13.82z"/>
<path id="use3119-89-8" fill="#fff" d="m369.85 225.19l-4.5 13.82h-14.53l11.75 8.56-4.5 13.81 11.78-8.53 11.78 8.53-4.5-13.81 11.75-8.56h-14.53l-4.5-13.82z"/>
<path id="use3119-4-7" fill="#fff" d="m124.15 225.19l-4.5 13.82h-14.53l11.75 8.56-4.5 13.81 11.78-8.53 11.78 8.53-4.5-13.81 11.75-8.56h-14.53l-4.5-13.82z"/>
<path id="use3119-3-0" fill="#fff" d="m83.2 190.09l-4.5 13.82h-14.531l11.75 8.56-4.5 13.81 11.781-8.53 11.781 8.53-4.5-13.81 11.749-8.56h-14.53l-4.5-13.82z"/>
<path id="use3119-0-48" fill="#fff" d="m83.2 260.29l-4.5 13.82h-14.531l11.75 8.56-4.5 13.81 11.781-8.53 11.781 8.53-4.5-13.81 11.749-8.56h-14.53l-4.5-13.82z"/>
<path id="use3119-889-04" fill="#fff" d="m328.9 260.29l-4.5 13.82h-14.53l11.75 8.56-4.5 13.81 11.78-8.53 11.78 8.53-4.5-13.81 11.75-8.56h-14.53l-4.5-13.82z"/>
<path id="use3119-76-29" fill="#fff" d="m328.9 190.09l-4.5 13.82h-14.53l11.75 8.56-4.5 13.81 11.78-8.53 11.78 8.53-4.5-13.81 11.75-8.56h-14.53l-4.5-13.82z"/>
<path id="use3119-03-6" fill="#fff" d="m124.15 295.39l-4.5 13.82h-14.53l11.75 8.56-4.5 13.81 11.78-8.53 11.78 8.53-4.5-13.81 11.75-8.56h-14.53l-4.5-13.82z"/>
<path id="use3119-9-10" fill="#fff" d="m42.25 225.19l-4.5 13.82h-14.531l11.75 8.56-4.5 13.81 11.781-8.53 11.781 8.53-4.5-13.81 11.75-8.56h-14.531l-4.5-13.82z"/>
<path id="use3119-54-4" fill="#fff" d="m42.25 295.39l-4.5 13.82h-14.531l11.75 8.56-4.5 13.81 11.781-8.53 11.781 8.53-4.5-13.81 11.75-8.56h-14.531l-4.5-13.82z"/>
<path id="use3119-05-9" fill="#fff" d="m287.95 225.19l-4.5 13.82h-14.53l11.75 8.56-4.5 13.81 11.78-8.53 11.78 8.53-4.5-13.81 11.75-8.56h-14.53l-4.5-13.82z"/>
<path id="use3119-08-0" fill="#fff" d="m410.8 190.09l-4.5 13.82h-14.53l11.75 8.56-4.5 13.81 11.78-8.53 11.78 8.53-4.5-13.81 11.75-8.56h-14.53l-4.5-13.82z"/>
<path id="use3119-6-2" fill="#fff" d="m247 190.09l-4.5 13.82h-14.53l11.75 8.56-4.5 13.81 11.78-8.53 11.78 8.53-4.5-13.81 11.75-8.56h-14.53l-4.5-13.82z"/>
</svg>
