<?xml version="1.0" encoding="UTF-8"?>
<svg xmlns="http://www.w3.org/2000/svg" xmlns:xlink="http://www.w3.org/1999/xlink" width="1200" height="800">
<rect fill="#de2910" width="1200" height="800"/>
<path fill="#ffde00" d="M -16.579605,99.600735 L -14.211014,91.497509 L -21.164052,86.709214 L -12.725491,86.457843 L -10.320158,78.365447 L -7.4734319,86.313318 L 0.96618286,86.100237 L -5.7130042,91.263662 L -2.9023678,99.224367 L -9.877059,94.467668 L -16.579605,99.600735 z" transform="matrix(9.9335156,0.2774683,-0.2774683,9.9335156,324.2925,-695.2415)"/>
<path fill="#ffde00" id="star" d="M 365.85517,332.68952 L 394.16199,344.06521 L 413.83419,320.74812 L 411.76256,351.18478 L 440.01746,362.6888 L 410.43031,370.124 L 408.2206,400.55095 L 392.00637,374.70949 L 362.38579,382.01038 L 381.952,358.60428 L 365.85517,332.68952 z"/>
<path fill="#ffde00" d="M 519.07788,179.31289 L 489.0245,174.07112 L 474.63005,200.96875 L 470.32831,170.76647 L 440.299,165.3884 L 467.69375,151.96416 L 463.52906,121.74267 L 484.7617,143.64832 L 512.21709,130.34849 L 497.94483,157.31116 L 519.07788,179.31289 z"/>
<path fill="#ffde00" d="M 455.25916,315.97951 L 464.63255,286.94812 L 440,268.95036 L 470.50703,268.89379 L 480.01205,239.90523 L 489.49303,268.90166 L 520,268.9835 L 495.35255,286.96085 L 504.70188,316 L 479.98793,298.11418 L 455.25916,315.97951 z"/>
<use xlink:href="#star" transform="matrix(0.9986295,5.2335955e-2,-5.2335955e-2,0.9986295,19.400048,-300.53681)"/>
</svg>