<?xml version="1.0" encoding="UTF-8" standalone="no"?>
<svg
   xmlns="http://www.w3.org/2000/svg"
   version="1.1"
   x="0px"
   y="0px"
   width="900"
   height="600"
   viewBox="0 0 900 600"
   enable-background="new 0 0 900 600"
   xml:space="preserve"><defs
     id="defs59" /><rect
     width="900"
     height="600"
     id="rect3"
     style="fill:#ffffff;fill-opacity:1"
     x="0"
     y="0" /><g
     id="g13"><path
       d="m 686.676,277.504 c 0,-66.792 -51.373,-121.569 -116.787,-126.915 c -17.61,-49.223 -64.67,-84.403 -119.9,-84.403 c -55.257,0 -102.275,35.181 -119.886,84.403 c -65.415,5.346 -116.814,60.123 -116.814,126.915 c 0,39.217 17.776,74.315 45.695,97.659 c -2.536,9.991 -3.873,20.492 -3.873,31.267 c 0,70.334 57.009,127.356 127.356,127.356 c 24.805,0 47.955,-7.083 67.522,-19.36 c 19.568,12.277 42.691,19.36 67.536,19.36 c 70.32,0 127.344,-57.022 127.344,-127.356 c 0,-10.774 -1.339,-21.275 -3.874,-31.267 c 27.906,-23.344 45.681,-58.441 45.681,-97.659 l 0,0 z"
       id="path15"
       style="clip-rule:evenodd;fill:#ffffff;fill-rule:evenodd" /><path
       d="m 451.725,190.979 c -32.534,0 -58.923,26.402 -58.923,58.91 c 0,32.562 26.389,58.952 58.923,58.952 c 32.563,0 58.952,-26.39 58.952,-58.952 c 0,-32.508 -26.389,-58.91 -58.952,-58.91 l 0,0 z m -0.014,87.339 c -15.682,0 -28.4,-12.707 -28.4,-28.43 c 0,-15.668 12.719,-28.415 28.4,-28.415 c 15.71,0 28.442,12.746 28.442,28.415 c 10e-4,15.723 -12.732,28.43 -28.442,28.43 l 0,0 z"
       id="path17"
       style="clip-rule:evenodd;fill:#003283;fill-rule:evenodd" /><path
       d="m 686.676,277.504 c 0,-66.792 -51.373,-121.569 -116.787,-126.915 c -17.61,-49.223 -64.67,-84.403 -119.9,-84.403 c -55.257,0 -102.275,35.181 -119.886,84.403 c -65.415,5.346 -116.814,60.123 -116.814,126.915 c 0,39.217 17.776,74.315 45.695,97.659 c -2.536,9.991 -3.873,20.492 -3.873,31.267 c 0,70.334 57.009,127.356 127.356,127.356 c 24.805,0 47.955,-7.083 67.522,-19.36 c 19.568,12.277 42.691,19.36 67.536,19.36 c 70.32,0 127.344,-57.022 127.344,-127.356 c 0,-10.774 -1.339,-21.275 -3.874,-31.267 c 27.906,-23.344 45.681,-58.441 45.681,-97.659 l 0,0 z m -67.949,85.864 c 5.637,12.953 8.75,27.215 8.75,42.234 c 0,58.621 -47.5,106.108 -106.106,106.108 c -26.403,0 -50.587,-9.66 -69.149,-25.617 C 433.647,502.05 409.49,511.71 383.074,511.71 c -58.621,0 -106.107,-47.487 -106.107,-106.108 c 0,-14.371 2.88,-28.069 8.048,-40.594 c -29.931,-18.784 -49.857,-52.035 -49.857,-89.972 c 0,-58.607 47.486,-106.107 106.094,-106.107 c 2.205,0 4.354,0.042 6.504,0.221 C 359.385,123.165 401.029,89.143 450.61,89.143 c 49.566,0 91.21,34.022 102.84,80.007 c 2.149,-0.179 4.342,-0.221 6.505,-0.221 c 58.607,0 106.106,47.5 106.106,106.107 c 0,36.821 -18.823,69.301 -47.334,88.332 l 0,0 z"
       id="path19"
       style="clip-rule:evenodd;fill:#003283;fill-rule:evenodd" /><path
       d="m 651.797,277.752 c 0,-53.702 -43.488,-97.191 -97.19,-97.191 c -3.06,0 -6.159,0.179 -9.177,0.427 c -9.688,-43.448 -48.479,-75.873 -94.82,-75.873 c -46.356,0 -85.134,32.425 -94.808,75.873 c -3.004,-0.248 -6.063,-0.427 -9.122,-0.427 c -53.702,0 -97.192,43.489 -97.192,97.191 c 0,35.912 19.499,67.273 48.533,84.101 c -5.153,11.85 -8.019,24.846 -8.019,38.583 c 0,53.701 43.545,97.191 97.205,97.191 c 24.97,0 47.748,-9.439 64.973,-24.9 c 17.212,15.461 39.989,24.9 64.96,24.9 c 53.659,0 97.15,-43.49 97.15,-97.191 c 0,-14.248 -3.06,-27.808 -8.614,-40.044 c 27.699,-17.102 46.121,-47.707 46.121,-82.64 l 0,0 z m -62.615,76.521 c 8.792,13.435 13.917,29.462 13.917,46.687 c 0,47.128 -38.198,85.325 -85.312,85.325 c -26.61,0 -50.312,-12.14 -65.965,-31.169 c -15.655,19.029 -39.384,31.169 -65.952,31.169 c -47.155,0 -85.354,-38.197 -85.354,-85.325 c 0,-16.716 4.823,-32.342 13.132,-45.516 C 283.111,342.476 261.669,312.16 261.669,276.897 c 0,-47.155 38.198,-85.354 85.354,-85.354 c 6.711,0 13.285,0.812 19.595,2.288 c 4.438,-42.939 40.734,-76.439 84.858,-76.439 c 43.917,0 80.089,33.197 84.788,75.873 c 5.513,-1.116 11.189,-1.722 17.005,-1.722 c 47.113,0 85.313,38.198 85.313,85.354 c 10e-4,34.272 -20.201,63.817 -49.4,77.376 l 0,0 z"
       id="path21"
       style="clip-rule:evenodd;fill:#e41f20;fill-rule:evenodd" /><polygon
       points="459.498,217.464 452.442,194.906 444.684,217.464 444.684,217.464 "
       id="polygon23"
       style="clip-rule:evenodd;fill:#ffffff;fill-rule:evenodd" /><polygon
       points="442.231,217.946 424.813,201.878 429.402,225.346 429.402,225.346 "
       id="polygon25"
       style="clip-rule:evenodd;fill:#ffffff;fill-rule:evenodd" /><polygon
       points="427.514,226.945 404.432,221.776 420.1,239.815 420.1,239.815 "
       id="polygon27"
       style="clip-rule:evenodd;fill:#ffffff;fill-rule:evenodd" /><polygon
       points="419.288,242.144 396.716,249.199 419.288,256.958 419.288,256.958 "
       id="polygon29"
       style="clip-rule:evenodd;fill:#ffffff;fill-rule:evenodd" /><polygon
       points="419.755,259.41 403.743,276.814 427.169,272.239 427.169,272.239 "
       id="polygon31"
       style="clip-rule:evenodd;fill:#ffffff;fill-rule:evenodd" /><polygon
       points="428.795,274.141 423.586,297.223 441.611,281.542 441.611,281.542 "
       id="polygon33"
       style="clip-rule:evenodd;fill:#ffffff;fill-rule:evenodd" /><polygon
       points="443.954,282.369 451.023,304.927 458.767,282.369 458.767,282.369 "
       id="polygon35"
       style="clip-rule:evenodd;fill:#ffffff;fill-rule:evenodd" /><polygon
       points="461.22,281.886 478.653,297.912 474.078,274.485 474.078,274.485 "
       id="polygon37"
       style="clip-rule:evenodd;fill:#ffffff;fill-rule:evenodd" /><polygon
       points="475.951,272.846 499.06,278.014 483.337,260.017 483.337,260.017 "
       id="polygon39"
       style="clip-rule:evenodd;fill:#ffffff;fill-rule:evenodd" /><polygon
       points="484.164,257.688 506.763,250.633 484.164,242.874 484.164,242.874 "
       id="polygon41"
       style="clip-rule:evenodd;fill:#ffffff;fill-rule:evenodd" /><polygon
       points="483.723,240.422 499.75,223.017 476.323,227.592 476.323,227.592 "
       id="polygon43"
       style="clip-rule:evenodd;fill:#ffffff;fill-rule:evenodd" /><polygon
       points="474.683,225.69 479.85,202.608 461.854,218.291 461.854,218.291 "
       id="polygon45"
       style="clip-rule:evenodd;fill:#ffffff;fill-rule:evenodd" /><path
       d="m 409.544,366.854 c 0,-20.754 -16.784,-37.552 -37.551,-37.552 c -20.753,0 -37.55,16.798 -37.55,37.552 c 0,20.752 16.797,37.551 37.55,37.551 c 1.131,0 2.205,-0.042 3.28,-0.125 c -0.083,-0.991 -0.124,-1.984 -0.124,-2.976 c 0,-1.116 0.041,-2.246 0.124,-3.321 c -1.075,0.139 -2.149,0.179 -3.28,0.179 c -17.266,0 -31.293,-13.999 -31.293,-31.308 c 0,-17.268 14.027,-31.309 31.293,-31.309 c 17.321,0 31.309,14.041 31.309,31.309 c 0,13.903 -9.04,25.658 -21.565,29.75 c -0.221,1.518 -0.345,3.102 -0.345,4.7 c 0,0.646 0.041,1.294 0.054,1.888 c 16.179,-4.175 28.098,-18.851 28.098,-36.338 l 0,0 z"
       id="path47"
       style="fill:#0083ce" /><path
       d="m 572.301,366.854 c 0,20.752 -16.784,37.551 -37.551,37.551 c -19.636,0 -35.73,-15.035 -37.413,-34.244 c 2.232,0.221 4.383,0.689 6.45,1.379 c 2.287,15.075 15.295,26.622 30.963,26.622 c 17.322,0 31.309,-13.999 31.309,-31.308 c 0,-17.268 -13.986,-31.309 -31.309,-31.309 c -16.618,0 -30.22,13.008 -31.213,29.364 c -2.024,-0.509 -4.092,-0.854 -6.2,-1.033 c 1.503,-19.332 17.694,-34.574 37.413,-34.574 c 20.767,10e-4 37.551,16.799 37.551,37.552 l 0,0 z"
       id="path49"
       style="fill:#e61446" /><path
       d="m 525.326,403.192 c -0.992,16.439 -14.595,29.42 -31.268,29.42 c -17.268,0 -31.281,-14.015 -31.281,-31.308 c 0,-13.918 9.04,-25.673 21.554,-29.765 c 0.219,-1.544 0.343,-3.088 0.343,-4.686 c 0,-0.648 0,-1.295 -0.04,-1.944 c -16.179,4.23 -28.127,18.907 -28.127,36.395 c 0,20.739 16.826,37.563 37.552,37.563 c 19.732,0 35.911,-15.24 37.469,-34.588 c -2.152,-0.178 -4.219,-0.522 -6.202,-1.087 l 0,0 z m -31.268,-33.196 c 15.724,0 28.731,11.548 30.964,26.608 c 2.066,0.689 4.217,1.172 6.464,1.379 c -1.682,-19.195 -17.791,-34.229 -37.428,-34.229 c -1.075,0 -2.149,0.04 -3.226,0.123 c 0.084,0.992 0.084,1.985 0.084,2.978 c 0,1.115 -0.042,2.231 -0.124,3.307 c 1.075,-0.125 2.191,-0.166 3.266,-0.166 l 0,0 z"
       id="path51"
       style="fill:#009c45" /><path
       d="m 450.14,404.28 c -1.529,19.348 -17.72,34.588 -37.44,34.588 c -20.766,0 -37.55,-16.824 -37.55,-37.563 c 0,-17.487 11.919,-32.164 28.097,-36.395 c 0.042,0.649 0.056,1.296 0.056,1.944 c 0,1.598 -0.124,3.142 -0.344,4.686 c -12.526,4.092 -21.566,15.847 -21.566,29.765 c 0,17.293 14.015,31.308 31.308,31.308 c 16.619,0 30.247,-12.98 31.24,-29.378 c 1.997,0.522 4.065,0.866 6.199,1.045 l 0,0 z m -40.719,-34.119 c 0.083,-1.075 0.124,-2.191 0.124,-3.307 c 0,-0.992 0,-1.985 -0.096,-2.978 c 1.074,-0.083 2.149,-0.123 3.251,-0.123 c 19.637,0 35.732,15.034 37.414,34.229 c -2.232,-0.207 -4.396,-0.689 -6.463,-1.379 c -2.26,-15.061 -15.242,-26.608 -30.951,-26.608 c -1.102,10e-4 -2.204,0.042 -3.279,0.166 l 0,0 z"
       id="path53"
       style="fill:#f7b000" /><path
       d="m 453.393,398.162 c -15.723,0 -28.704,-11.547 -30.963,-26.622 c -2.068,-0.689 -4.217,-1.158 -6.464,-1.379 c 1.681,19.209 17.791,34.244 37.427,34.244 c 1.075,0 2.164,-0.042 3.252,-0.125 c -0.096,-0.991 -0.139,-1.984 -0.139,-2.976 c 0,-1.116 0.069,-2.246 0.152,-3.321 c -1.075,0.139 -2.15,0.179 -3.265,0.179 l 0,0 z m 0,-68.859 c -19.747,0 -35.925,15.242 -37.427,34.574 c 2.108,0.18 4.175,0.524 6.188,1.033 c 1.006,-16.356 14.606,-29.364 31.239,-29.364 c 17.281,0 31.28,14.041 31.28,31.309 c 0,13.903 -9.025,25.658 -21.538,29.75 c -0.234,1.518 -0.358,3.102 -0.358,4.7 c 0,0.646 0,1.294 0.042,1.888 c 16.191,-4.176 28.139,-18.852 28.139,-36.338 c 0,-20.754 -16.839,-37.552 -37.565,-37.552 l 0,0 z"
       id="path55"
       style="fill:#000006" /></g></svg>